<svg width="80" height="241" viewBox="0 0 80 241" fill="none" xmlns="http://www.w3.org/2000/svg">
<mask id="mask0_401_77998" style="mask-type:alpha" maskUnits="userSpaceOnUse" x="0" y="0" width="80" height="241">
<rect x="0.5" y="240.294" width="239" height="79" transform="rotate(-90 0.5 240.294)" fill="black" stroke="#F22F46"/>
</mask>
<g mask="url(#mask0_401_77998)">
<line x1="117.373" y1="-103.423" x2="-20.1558" y2="34.106" stroke="#F22F46"/>
<line x1="117.373" y1="-91.833" x2="-20.1558" y2="45.6959" stroke="#F22F46"/>
<line x1="117.373" y1="-80.2431" x2="-20.1558" y2="57.2857" stroke="#F22F46"/>
<line x1="117.373" y1="-68.6533" x2="-20.1558" y2="68.8755" stroke="#F22F46"/>
<line x1="117.373" y1="-57.0634" x2="-20.1558" y2="80.4654" stroke="#F22F46"/>
<line x1="117.373" y1="-45.4736" x2="-20.1558" y2="92.0552" stroke="#F22F46"/>
<line x1="117.373" y1="-33.8838" x2="-20.1558" y2="103.645" stroke="#F22F46"/>
<line x1="117.373" y1="-22.2939" x2="-20.1558" y2="115.235" stroke="#F22F46"/>
<line x1="117.373" y1="-10.7041" x2="-20.1558" y2="126.825" stroke="#F22F46"/>
<line x1="117.373" y1="0.88578" x2="-20.1558" y2="138.415" stroke="#F22F46"/>
<line x1="117.373" y1="12.4756" x2="-20.1558" y2="150.004" stroke="#F22F46"/>
<line x1="117.373" y1="24.0655" x2="-20.1558" y2="161.594" stroke="#F22F46"/>
<line x1="117.373" y1="35.6553" x2="-20.1558" y2="173.184" stroke="#F22F46"/>
<line x1="117.373" y1="47.2452" x2="-20.1558" y2="184.774" stroke="#F22F46"/>
<line x1="117.373" y1="58.835" x2="-20.1558" y2="196.364" stroke="#F22F46"/>
<line x1="117.373" y1="70.4248" x2="-20.1558" y2="207.954" stroke="#F22F46"/>
<line x1="117.373" y1="82.0147" x2="-20.1558" y2="219.544" stroke="#F22F46"/>
<line x1="117.373" y1="93.6045" x2="-20.1558" y2="231.133" stroke="#F22F46"/>
<line x1="117.373" y1="105.194" x2="-20.1558" y2="242.723" stroke="#F22F46"/>
<line x1="117.373" y1="116.784" x2="-20.1558" y2="254.313" stroke="#F22F46"/>
<line x1="117.373" y1="128.374" x2="-20.1558" y2="265.903" stroke="#F22F46"/>
<line x1="117.373" y1="139.964" x2="-20.1558" y2="277.493" stroke="#F22F46"/>
<line x1="117.373" y1="151.554" x2="-20.1558" y2="289.083" stroke="#F22F46"/>
<line x1="117.373" y1="163.144" x2="-20.1558" y2="300.672" stroke="#F22F46"/>
<line x1="117.373" y1="174.733" x2="-20.1558" y2="312.262" stroke="#F22F46"/>
<line x1="117.373" y1="186.323" x2="-20.1558" y2="323.852" stroke="#F22F46"/>
<line x1="117.373" y1="197.913" x2="-20.1558" y2="335.442" stroke="#F22F46"/>
</g>
</svg>

