<svg width="160" height="362" viewBox="0 0 160 362" fill="none" xmlns="http://www.w3.org/2000/svg">
<mask id="mask0_1163_1344" style="mask-type:alpha" maskUnits="userSpaceOnUse" x="0" y="0" width="160" height="362">
<rect x="0.5" y="361.5" width="361" height="159" transform="rotate(-90 0.5 361.5)" fill="black" stroke="#F22F46"/>
</mask>
<g mask="url(#mask0_1163_1344)">
<line x1="160.374" y1="-15.4228" x2="22.8452" y2="122.106" stroke="#F22F46"/>
<line x1="160.374" y1="-3.83297" x2="-4.62594" y2="161.167" stroke="#F22F46"/>
<line x1="160.374" y1="7.75687" x2="-5.62594" y2="173.757" stroke="#F22F46"/>
<line x1="160.374" y1="19.3467" x2="-6.62594" y2="186.347" stroke="#F22F46"/>
<line x1="160.374" y1="30.9366" x2="-4.62594" y2="195.937" stroke="#F22F46"/>
<line x1="160.374" y1="42.5264" x2="-4.62594" y2="207.526" stroke="#F22F46"/>
<line x1="160.374" y1="54.1162" x2="22.8452" y2="191.645" stroke="#F22F46"/>
<line x1="160.374" y1="-15.4228" x2="-12.6259" y2="157.577" stroke="#F22F46"/>
<line x1="136.882" y1="-38.0566" x2="-0.646474" y2="99.4722" stroke="#F22F46"/>
<line x1="136.882" y1="-26.4668" x2="-0.646474" y2="111.062" stroke="#F22F46"/>
<line x1="136.882" y1="-14.8769" x2="-0.646474" y2="122.652" stroke="#F22F46"/>
<line x1="136.882" y1="-3.28707" x2="-0.646474" y2="134.242" stroke="#F22F46"/>
<line x1="136.882" y1="-49.6464" x2="-0.646474" y2="87.8824" stroke="#F22F46"/>
<line x1="91.3536" y1="-15.4228" x2="-81.6464" y2="157.577" stroke="#F22F46"/>
<line x1="67.8619" y1="-38.0566" x2="-69.667" y2="99.4722" stroke="#F22F46"/>
<line x1="67.8619" y1="-26.4668" x2="-69.667" y2="111.062" stroke="#F22F46"/>
<line x1="67.8619" y1="-14.8769" x2="-69.667" y2="122.652" stroke="#F22F46"/>
<line x1="67.8619" y1="-3.28707" x2="-69.667" y2="134.242" stroke="#F22F46"/>
<line x1="67.8619" y1="-49.6464" x2="-69.667" y2="87.8824" stroke="#F22F46"/>
<line x1="55.8824" y1="-49.6464" x2="-81.6465" y2="87.8824" stroke="#F22F46"/>
<line x1="160.374" y1="54.1162" x2="-6.62594" y2="221.116" stroke="#F22F46"/>
<line x1="160.374" y1="65.7061" x2="-9.62594" y2="235.706" stroke="#F22F46"/>
<line x1="160.374" y1="77.2959" x2="-15.6259" y2="253.296" stroke="#F22F46"/>
<line x1="160.374" y1="88.8858" x2="-3.62594" y2="252.886" stroke="#F22F46"/>
<line x1="160.374" y1="100.476" x2="-20.6259" y2="281.476" stroke="#F22F46"/>
<line x1="160.374" y1="112.065" x2="-7.62593" y2="280.065" stroke="#F22F46"/>
<line x1="160.374" y1="123.655" x2="-8.62593" y2="292.655" stroke="#F22F46"/>
<line x1="160.374" y1="135.245" x2="-17.6259" y2="313.245" stroke="#F22F46"/>
<line x1="160.374" y1="146.835" x2="-3.62594" y2="310.835" stroke="#F22F46"/>
<line x1="160.374" y1="158.425" x2="-9.62594" y2="328.425" stroke="#F22F46"/>
<line x1="160.374" y1="170.015" x2="-4.62594" y2="335.015" stroke="#F22F46"/>
<line x1="160.374" y1="181.605" x2="-8.62593" y2="350.605" stroke="#F22F46"/>
<line x1="160.374" y1="193.194" x2="-3.62594" y2="357.194" stroke="#F22F46"/>
<line x1="160.374" y1="204.784" x2="-5.62594" y2="370.784" stroke="#F22F46"/>
<line x1="160.374" y1="216.374" x2="0.374064" y2="376.374" stroke="#F22F46"/>
<line x1="160.374" y1="227.964" x2="22.8452" y2="365.493" stroke="#F22F46"/>
<line x1="160.374" y1="239.554" x2="22.8452" y2="377.083" stroke="#F22F46"/>
<line x1="160.374" y1="251.144" x2="22.8452" y2="388.672" stroke="#F22F46"/>
<line x1="160.374" y1="262.733" x2="22.8452" y2="400.262" stroke="#F22F46"/>
<line x1="160.374" y1="274.323" x2="22.8452" y2="411.852" stroke="#F22F46"/>
<line x1="160.374" y1="285.913" x2="22.8452" y2="423.442" stroke="#F22F46"/>
<line x1="217.882" y1="239.554" x2="80.3535" y2="377.083" stroke="#F22F46"/>
<line x1="217.882" y1="251.144" x2="80.3535" y2="388.672" stroke="#F22F46"/>
<line x1="217.882" y1="262.733" x2="80.3535" y2="400.262" stroke="#F22F46"/>
<line x1="217.882" y1="274.323" x2="80.3535" y2="411.852" stroke="#F22F46"/>
<line x1="217.882" y1="285.913" x2="80.3535" y2="423.442" stroke="#F22F46"/>
<line x1="229.882" y1="285.913" x2="92.3535" y2="423.442" stroke="#F22F46"/>
</g>
</svg>
