<svg width="395" height="62" viewBox="0 0 395 62" fill="none" xmlns="http://www.w3.org/2000/svg">
<g clip-path="url(#clip0_68_1975)">
<path d="M73.3516 54.6924L38.0781 37.6599V0.188477L73.3516 54.6924ZM76.1561 61.1885L38.0781 45.067V61.1885H76.1561Z" fill="#001489"/>
<path d="M2.80469 54.6924L38.0782 0.188477V37.6599L2.80469 54.6924Z" fill="#001489"/>
<path d="M0 61.1888H38.078V45.0674L0 61.1888Z" fill="#001489"/>
<path d="M79.2365 50.0186C80.6191 50.0186 81.7645 51.1276 81.7645 52.514C81.7645 53.9004 80.6585 55.0491 79.276 55.0491C77.8935 55.0491 76.748 53.94 76.748 52.5536C76.748 51.1276 77.854 50.0186 79.2365 50.0186ZM79.2365 54.653C80.4216 54.653 81.3695 53.7023 81.3695 52.514C81.3695 51.3257 80.4216 50.375 79.2365 50.375C78.0515 50.375 77.1035 51.3257 77.1035 52.514C77.1035 53.7023 78.0515 54.653 79.2365 54.653ZM78.6835 53.9796H78.328V51.088H79.4341C80.1056 51.088 80.3425 51.3653 80.3425 51.8802C80.382 52.316 80.0266 52.6725 79.6316 52.7121L80.5005 53.9796H80.1055L79.2365 52.7121H78.723L78.6835 53.9796ZM78.6835 52.3556H79.1575C79.5525 52.3556 79.987 52.316 79.987 51.8406C79.987 51.4841 79.6315 51.3653 79.355 51.3653H78.723L78.6835 52.3556Z" fill="#001489"/>
<path d="M105.899 54.6928H123.003C140.62 54.6928 151.087 45.5428 151.087 30.372C151.087 15.2012 140.62 6.09082 123.003 6.09082H105.899V54.6928ZM116.722 14.5278H123.003C134.418 14.5278 140.146 20.1921 140.146 30.372C140.146 40.5519 134.418 46.2161 123.003 46.2161H116.722V14.5278Z" fill="#001489"/>
<path d="M187.902 33.62H208.481V25.183H187.902V14.5278H211.167V6.09082H177.039V54.6928H211.918V46.2558H187.902V33.62Z" fill="#001489"/>
<path d="M273.616 46.2558H252.721V6.09082H241.858V54.6928H273.616V46.2558Z" fill="#001489"/>
<path d="M332.076 6.09082H288.587V14.5278H304.861V54.6928H315.763V14.5278H332.076V6.09082Z" fill="#001489"/>
<path d="M395 54.6926H383.663L378.923 42.5322H359.213L354.473 54.6926H343.887L364.15 5.89258H375.092L395 54.6926ZM375.842 34.3724L369.088 17.1023L362.294 34.3724H375.842Z" fill="#001489"/>
</g>
<defs>
<clipPath id="clip0_68_1975">
<rect width="395" height="61" fill="white" transform="translate(0 0.188477)"/>
</clipPath>
</defs>
</svg>
