<svg width="15" height="15" viewBox="0 0 15 15" fill="none" xmlns="http://www.w3.org/2000/svg">
<circle cx="7.5" cy="7.5" r="7" stroke="#F22F46"/>
<path d="M9.92857 7.5C9.92857 9.51998 9.5767 11.325 9.02756 12.6063C8.7526 13.2479 8.43804 13.7351 8.11421 14.0547C7.79254 14.3722 7.489 14.5 7.21429 14.5C6.93957 14.5 6.63604 14.3722 6.31436 14.0547C5.99053 13.7351 5.67597 13.2479 5.40101 12.6063C4.85187 11.325 4.5 9.51998 4.5 7.5C4.5 5.48002 4.85187 3.67501 5.40101 2.39366C5.67597 1.7521 5.99053 1.26485 6.31436 0.945261C6.63604 0.627791 6.93957 0.5 7.21429 0.5C7.489 0.5 7.79254 0.627791 8.11421 0.945261C8.43804 1.26485 8.7526 1.7521 9.02756 2.39366C9.5767 3.67501 9.92857 5.48002 9.92857 7.5Z" stroke="#F22F46"/>
<line x1="1" y1="5.5" x2="14" y2="5.5" stroke="#F22F46"/>
<line x1="1" y1="9.5" x2="14" y2="9.5" stroke="#F22F46"/>
</svg>
