<svg width="16" height="16" viewBox="0 0 16 16" fill="none" xmlns="http://www.w3.org/2000/svg">
<circle cx="7.8418" cy="8" r="7" stroke="white"/>
<path d="M10.2704 8C10.2704 10.02 9.9185 11.825 9.36935 13.1063C9.0944 13.7479 8.77984 14.2351 8.45601 14.5547C8.13433 14.8722 7.8308 15 7.55608 15C7.28136 15 6.97783 14.8722 6.65616 14.5547C6.33233 14.2351 6.01777 13.7479 5.74281 13.1063C5.19366 11.825 4.8418 10.02 4.8418 8C4.8418 5.98002 5.19366 4.17501 5.74281 2.89366C6.01777 2.2521 6.33233 1.76485 6.65616 1.44526C6.97783 1.12779 7.28136 1 7.55608 1C7.8308 1 8.13433 1.12779 8.45601 1.44526C8.77984 1.76485 9.0944 2.2521 9.36935 2.89366C9.9185 4.17501 10.2704 5.98002 10.2704 8Z" stroke="white"/>
<line x1="1.3418" y1="6" x2="14.3418" y2="6" stroke="white"/>
<line x1="1.3418" y1="10" x2="14.3418" y2="10" stroke="white"/>
</svg>
