<svg width="17" height="15" viewBox="0 0 17 15" fill="none" xmlns="http://www.w3.org/2000/svg">
<path d="M1 6.96135C1 7.6754 1.28315 8.36019 1.78715 8.8651C2.29115 9.37001 2.97473 9.65366 3.6875 9.65366C4.40027 9.65366 5.08385 9.37001 5.58785 8.8651C6.09185 8.36019 6.375 7.6754 6.375 6.96135C6.375 6.24731 6.09185 5.56251 5.58785 5.0576C5.08385 4.5527 4.40027 4.26904 3.6875 4.26904C2.97473 4.26904 2.29115 4.5527 1.78715 5.0576C1.28315 5.56251 1 6.24731 1 6.96135V6.96135Z" stroke="white" stroke-linecap="round" stroke-linejoin="round"/>
<path d="M10.6748 3.19231C10.6748 3.90635 10.958 4.59115 11.462 5.09606C11.966 5.60096 12.6495 5.88462 13.3623 5.88462C14.0751 5.88462 14.7587 5.60096 15.2627 5.09606C15.7667 4.59115 16.0498 3.90635 16.0498 3.19231C16.0498 2.47826 15.7667 1.79346 15.2627 1.28856C14.7587 0.783653 14.0751 0.5 13.3623 0.5C12.6495 0.5 11.966 0.783653 11.462 1.28856C10.958 1.79346 10.6748 2.47826 10.6748 3.19231Z" stroke="white" stroke-linecap="round" stroke-linejoin="round"/>
<path d="M10.6748 11.8075C10.6748 12.5216 10.958 13.2064 11.462 13.7113C11.966 14.2162 12.6495 14.4998 13.3623 14.4998C14.0751 14.4998 14.7587 14.2162 15.2627 13.7113C15.7667 13.2064 16.0498 12.5216 16.0498 11.8075C16.0498 11.0935 15.7667 10.4087 15.2627 9.90379C14.7587 9.39889 14.0751 9.11523 13.3623 9.11523C12.6495 9.11523 11.966 9.39889 11.462 9.90379C10.958 10.4087 10.6748 11.0935 10.6748 11.8075Z" stroke="white" stroke-linecap="round" stroke-linejoin="round"/>
<path d="M6.19287 5.98607L10.8569 4.16895" stroke="white" stroke-linecap="round" stroke-linejoin="round"/>
<path d="M6.0918 8.16602L10.958 10.6035" stroke="white" stroke-linecap="round" stroke-linejoin="round"/>
</svg>
