<svg width="17" height="16" viewBox="0 0 17 16" fill="none" xmlns="http://www.w3.org/2000/svg">
<path d="M1 7.46135C1 8.1754 1.28315 8.86019 1.78715 9.3651C2.29115 9.87001 2.97473 10.1537 3.6875 10.1537C4.40027 10.1537 5.08385 9.87001 5.58785 9.3651C6.09185 8.86019 6.375 8.1754 6.375 7.46135C6.375 6.74731 6.09185 6.06251 5.58785 5.5576C5.08385 5.0527 4.40027 4.76904 3.6875 4.76904C2.97473 4.76904 2.29115 5.0527 1.78715 5.5576C1.28315 6.06251 1 6.74731 1 7.46135V7.46135Z" stroke="#F22F46" stroke-linecap="round" stroke-linejoin="round"/>
<path d="M10.6748 3.69231C10.6748 4.40635 10.958 5.09115 11.462 5.59606C11.966 6.10096 12.6495 6.38462 13.3623 6.38462C14.0751 6.38462 14.7587 6.10096 15.2627 5.59606C15.7667 5.09115 16.0498 4.40635 16.0498 3.69231C16.0498 2.97826 15.7667 2.29346 15.2627 1.78856C14.7587 1.28365 14.0751 1 13.3623 1C12.6495 1 11.966 1.28365 11.462 1.78856C10.958 2.29346 10.6748 2.97826 10.6748 3.69231Z" stroke="#F22F46" stroke-linecap="round" stroke-linejoin="round"/>
<path d="M10.6748 12.3078C10.6748 13.0218 10.958 13.7066 11.462 14.2115C11.966 14.7164 12.6495 15.0001 13.3623 15.0001C14.0751 15.0001 14.7587 14.7164 15.2627 14.2115C15.7667 13.7066 16.0498 13.0218 16.0498 12.3078C16.0498 11.5937 15.7667 10.9089 15.2627 10.404C14.7587 9.89913 14.0751 9.61548 13.3623 9.61548C12.6495 9.61548 11.966 9.89913 11.462 10.404C10.958 10.9089 10.6748 11.5937 10.6748 12.3078Z" stroke="#F22F46" stroke-linecap="round" stroke-linejoin="round"/>
<path d="M6.19287 6.48583L10.8569 4.6687" stroke="#F22F46" stroke-linecap="round" stroke-linejoin="round"/>
<path d="M6.0918 8.66626L10.958 11.1037" stroke="#F22F46" stroke-linecap="round" stroke-linejoin="round"/>
</svg>
