<svg width="32" height="31" viewBox="0 0 32 31" fill="none" xmlns="http://www.w3.org/2000/svg">
<g clip-path="url(#clip0_12_13779)">
<path d="M29.0464 0.078125H2.97969C1.70191 0.078125 0.679688 1.10035 0.679688 2.29294V28.53C0.679688 29.7226 1.70191 30.7448 2.97969 30.7448H29.1315C30.4093 30.7448 31.4315 29.7226 31.4315 28.53V2.29294C31.3463 1.10035 30.3241 0.078125 29.0464 0.078125ZM9.7945 26.23H5.1945V11.5781H9.70932V26.23H9.7945ZM7.4945 9.53368C6.04635 9.53368 4.85376 8.34109 4.85376 6.89294C4.85376 5.44479 6.04635 4.33738 7.4945 4.33738C8.94265 4.33738 10.1352 5.52998 10.1352 6.97812C10.1352 8.42627 8.94265 9.53368 7.4945 9.53368ZM26.8315 26.23H22.3167V19.0744C22.3167 17.3707 22.3167 15.1559 19.9315 15.1559C17.5464 15.1559 17.2056 17.03 17.2056 18.904V26.1448H12.6056V11.5781H16.9501V13.5374H17.0352C17.6315 12.3448 19.1649 11.1522 21.3797 11.1522C25.9797 11.1522 26.8315 14.2189 26.8315 18.1374V26.23Z" fill="#121C2D"/>
</g>
<defs>
<clipPath id="clip0_12_13779">
<rect width="30.6667" height="30.6667" fill="white" transform="translate(0.679688 0.078125)"/>
</clipPath>
</defs>
</svg>
