<svg width="40" height="40" viewBox="0 0 40 40" fill="none" xmlns="http://www.w3.org/2000/svg">
<path d="M19.8691 0.5C8.88972 0.5 0 9.2246 0 20C0 30.7754 8.88972 39.5 19.8691 39.5C30.8484 39.5 39.7381 30.7754 39.7381 20C39.7381 9.2246 30.8484 0.5 19.8691 0.5ZM19.8691 34.3556C11.7939 34.3556 5.24175 27.9251 5.24175 20C5.24175 12.0749 11.7939 5.64439 19.8691 5.64439C27.9442 5.64439 34.4964 12.0749 34.4964 20C34.4964 27.9251 27.9442 34.3556 19.8691 34.3556Z" fill="white"/>
<path d="M20.6831 15.1337C20.6831 12.9091 22.5248 11.0669 24.8269 11.0669C27.0936 11.0669 28.9707 12.8744 28.9707 15.1337C28.9707 17.3583 27.129 19.2006 24.8269 19.2006C22.5248 19.2006 20.6831 17.3931 20.6831 15.1337Z" fill="white"/>
<path d="M20.6831 24.8315C20.6831 22.6069 22.5248 20.7646 24.8269 20.7646C27.0936 20.7646 28.9707 22.5721 28.9707 24.8315C28.9707 27.0561 27.129 28.8983 24.8269 28.8983C22.5248 28.8983 20.6831 27.0909 20.6831 24.8315Z" fill="white"/>
<path d="M10.8027 24.8315C10.8027 22.6069 12.6444 20.7646 14.9465 20.7646C17.2487 20.7646 19.0549 22.6069 19.0549 24.8315C19.0549 27.0561 17.2133 28.8983 14.9111 28.8983C12.609 28.8983 10.8027 27.0909 10.8027 24.8315Z" fill="white"/>
<path d="M10.8027 15.1337C10.8027 12.9091 12.6444 11.0669 14.9465 11.0669C17.2487 11.0669 19.0904 12.8744 19.0904 15.1337C19.0904 17.3583 17.2487 19.2006 14.9465 19.2006C12.6444 19.2006 10.8027 17.3931 10.8027 15.1337Z" fill="white"/>
</svg>
