<svg width="255" height="165" viewBox="0 0 255 165" fill="none" xmlns="http://www.w3.org/2000/svg">
<path d="M193.82 22.8717V25.3271H191.363V22.8717H188.924L184.027 17.9773L186.467 15.5385V13.083H188.924V17.9773H191.363V20.4328L193.82 22.8717Z" fill="#FCCFCF"/>
<path d="M254.999 52.2386V54.6775L252.559 57.1164L250.103 54.6775H247.663V59.5718H245.206L240.31 64.4662H235.43V69.3605L232.974 71.7994V74.2548L230.534 76.6937V69.3605L232.974 66.905V64.4662L235.43 62.0107L232.974 59.5718L228.078 64.4662H220.742L215.845 69.3605L220.742 74.2548L218.285 76.6937V79.1492L215.845 81.588V84.0435H213.389V79.1492L210.949 76.6937V74.2548L208.492 71.7994H206.053V74.2548L203.613 76.6937H193.82L191.364 74.2548H188.924L186.467 76.6937H179.131L174.235 71.7994H171.795L169.339 69.3605L166.899 71.7994H162.003V74.2548H154.65V79.1492L152.21 81.588L154.65 84.0435H149.77L147.314 81.588V76.6937L144.874 74.2548H142.417V71.7994L139.978 69.3605V62.0107L142.417 59.5718L139.978 57.1164V47.3443H144.874L149.77 52.2386L147.314 54.6775H144.874V57.1164H147.314L154.65 49.7832H159.546L162.003 47.3443H164.442L166.899 49.7832V44.8889L169.339 42.45V39.9945H171.795L174.235 42.45H176.691V39.9945L179.131 37.5557H181.571V35.1002L184.028 32.6613H188.924L191.364 30.2059V27.767L193.82 25.3281L196.26 27.767V30.2059H201.156V32.6613L196.26 37.5557H201.156L203.613 39.9945H206.053L208.492 37.5557L210.949 39.9945V42.45L213.389 44.8889L215.845 42.45H218.285L220.742 39.9945H223.181L228.078 44.8889H232.974L235.43 47.3443H245.206L247.663 49.7832H250.103L252.559 52.2386H254.999Z" fill="#FCCFCF"/>
<path d="M250.1 42.4512L247.66 44.8901V42.4512H250.1Z" fill="#FCCFCF"/>
<path d="M245.205 147.635V150.09L242.766 147.635V142.74L245.205 145.196V147.635Z" fill="#FCCFCF"/>
<path d="M245.206 150.09L242.766 152.529V154.984L240.31 157.423L237.87 154.984L242.766 150.09H245.206Z" fill="#FCCFCF"/>
<path d="M228.077 135.409V142.742L225.637 145.197V147.636H220.741L218.284 145.197H215.845V142.742L213.388 140.303L210.948 142.742H208.492L206.052 145.197H203.612L201.156 142.742V137.864L198.716 135.409L201.156 132.97H203.612L208.492 128.076H210.948L213.388 125.62H215.845V128.076L218.284 130.514H220.741V125.62L223.181 128.076V130.514L228.077 135.409Z" fill="#FCCFCF"/>
<path d="M225.636 123.18V125.619L223.179 123.18H220.739V120.725H223.179L225.636 123.18Z" fill="#FCCFCF"/>
<path d="M225.638 32.6602V35.099L223.182 32.6602H225.638Z" fill="#FCCFCF"/>
<path d="M225.638 150.09L223.182 152.529V150.09H225.638Z" fill="#FCCFCF"/>
<path d="M223.179 74.2543V76.6932L220.739 79.1486V71.7988L223.179 74.2543Z" fill="#FCCFCF"/>
<path d="M223.181 32.6605L220.741 35.0994H218.285L215.845 32.6605L218.285 30.2051L220.741 32.6605H223.181Z" fill="#FCCFCF"/>
<path d="M223.18 81.5889L220.741 84.0443V86.4832L218.284 84.0443L220.741 81.5889H223.18Z" fill="#FCCFCF"/>
<path d="M220.741 120.725V123.18H218.284L215.845 120.725H213.388L210.948 118.286H218.284L220.741 120.725Z" fill="#FCCFCF"/>
<path d="M220.74 86.4824V88.9213L218.284 91.3768H213.388L215.844 88.9213H218.284L220.74 86.4824Z" fill="#FCCFCF"/>
<path d="M213.388 91.375V93.8139H210.948L213.388 91.375Z" fill="#FCCFCF"/>
<path d="M213.387 81.5889V84.0443L208.491 88.922L206.051 86.4832H208.491L213.387 81.5889Z" fill="#FCCFCF"/>
<path d="M213.39 79.1486V81.5875L208.493 86.4818H206.053L203.614 88.9207L206.053 91.3762V96.2705L201.157 101.165H188.925V96.2705H181.572L179.132 93.815H176.692V91.3762L174.236 88.9207H171.796V86.4818H174.236L176.692 84.043V81.5875L181.572 76.6932L184.028 79.1486V81.5875H186.468L188.925 84.043H198.717V81.5875H201.157L203.614 79.1486L201.157 76.6932H203.614L206.053 74.2543V71.7988H208.493L210.95 74.2543V76.6932L213.39 79.1486Z" fill="#FCCFCF"/>
<path d="M210.949 88.9213V91.3768H208.492V88.9213L210.949 86.4824V88.9213Z" fill="#FCCFCF"/>
<path d="M208.491 110.953V113.392H206.051L208.491 110.953Z" fill="#FCCFCF"/>
<path d="M208.491 115.831L206.051 118.287V115.831H208.491Z" fill="#FCCFCF"/>
<path d="M208.491 108.498H206.051V106.06L208.491 108.498Z" fill="#FCCFCF"/>
<path d="M208.491 110.954H206.051V108.499L208.491 110.954Z" fill="#FCCFCF"/>
<path d="M206.051 120.725V123.18L203.611 120.725L206.051 118.286V120.725Z" fill="#FCCFCF"/>
<path d="M206.051 103.604V106.059H203.611L206.051 103.604Z" fill="#FCCFCF"/>
<path d="M206.051 98.71V101.165H203.611L206.051 98.71Z" fill="#FCCFCF"/>
<path d="M203.612 113.393V118.287L201.155 120.726H198.715L196.259 118.287V115.831L198.715 118.287H201.155V115.831L203.612 113.393Z" fill="#FCCFCF"/>
<path d="M203.612 79.1463L201.155 81.5851H198.716V84.0406H188.923L186.467 81.5851H184.027V79.1463L181.57 76.6908H186.467L188.923 74.252H191.363L193.819 76.6908H201.155L203.612 79.1463Z" fill="#FCCFCF"/>
<path d="M203.613 113.393L201.156 115.831V113.393H203.613Z" fill="#FCCFCF"/>
<path d="M203.612 125.619H196.259L193.819 123.18H201.155L203.612 125.619Z" fill="#FCCFCF"/>
<path d="M201.155 115.831V118.287H198.715L196.259 115.831H201.155Z" fill="#FCCFCF"/>
<path d="M201.156 113.393V115.831H198.716L201.156 113.393Z" fill="#FCCFCF"/>
<path d="M198.715 103.604V106.059L196.259 103.604H198.715Z" fill="#FCCFCF"/>
<path d="M198.716 108.498L196.259 110.954H193.819L196.259 108.498V106.06L198.716 108.498Z" fill="#FCCFCF"/>
<path d="M196.259 106.059V108.498L191.362 103.604V101.165L196.259 106.059Z" fill="#FCCFCF"/>
<path d="M196.259 101.165L193.819 103.604L191.362 101.165H196.259Z" fill="#FCCFCF"/>
<path d="M196.259 108.499L193.819 110.954L191.362 108.499H196.259Z" fill="#FCCFCF"/>
<path d="M196.26 108.498H191.364L188.924 110.953V103.604H191.364L196.26 108.498Z" fill="#FCCFCF"/>
<path d="M193.821 120.726V123.181H191.364L188.924 120.726V118.287L186.468 115.831V113.393L193.821 120.726Z" fill="#FCCFCF"/>
<path d="M193.819 115.831V118.287L191.362 115.831V113.393L193.819 115.831Z" fill="#FCCFCF"/>
<path d="M191.364 113.392V115.831L188.924 113.392V110.953L191.364 113.392Z" fill="#FCCFCF"/>
<path d="M191.363 101.166V103.605H188.923V106.06H186.466V103.605L184.026 101.166L188.923 96.2715V101.166H191.363Z" fill="#FCCFCF"/>
<path d="M188.923 96.2715L184.026 101.166V98.7104L186.466 96.2715H188.923Z" fill="#FCCFCF"/>
<path d="M186.467 96.2715L184.027 98.7104L181.57 96.2715H186.467Z" fill="#FCCFCF"/>
<path d="M184.027 98.71V101.165L181.57 103.604V98.71H184.027Z" fill="#FCCFCF"/>
<path d="M184.027 98.7098H181.57L176.69 93.8154H179.13L184.027 98.7098Z" fill="#FCCFCF"/>
<path d="M181.57 98.7098V103.604H179.13V106.06H176.691V110.954H174.234L171.794 108.498V103.604H169.338V96.2709H171.794V93.8154H176.691L181.57 98.7098Z" fill="#FCCFCF"/>
<path d="M181.571 76.6936L176.691 81.5879V84.0434H169.338L166.898 86.4823V84.0434H164.442L162.002 81.5879H159.546V84.0434H157.106L154.649 81.5879L157.106 79.149H154.649V74.2547H162.002V71.7992H166.898L169.338 69.3604L171.795 71.7992H174.235L179.131 76.6936H181.571Z" fill="#FCCFCF"/>
<path d="M179.131 113.393H176.691V110.954L179.131 113.393Z" fill="#FCCFCF"/>
<path d="M176.691 91.376H171.795V93.8149H176.691V91.376Z" fill="#FCCFCF"/>
<path d="M176.691 84.042L174.235 86.4808H166.898L169.338 84.042H176.691Z" fill="#FCCFCF"/>
<path d="M176.691 91.3744H174.234V88.9189L176.691 91.3744Z" fill="#FCCFCF"/>
<path d="M174.235 88.9189H171.795V91.3578H174.235V88.9189Z" fill="#FCCFCF"/>
<path d="M171.795 93.8133V96.2687H169.339V101.163L166.899 98.7076H164.442V96.2687L171.795 88.9189V93.8133Z" fill="#FCCFCF"/>
<path d="M171.795 86.4814H166.898V88.9203H171.795V86.4814Z" fill="#FCCFCF"/>
<path d="M171.795 88.9189L164.442 96.2687L162.002 93.8133V91.3744H164.442V88.9189H171.795Z" fill="#FCCFCF"/>
<path d="M169.338 30.2051L166.898 32.6605H164.442L162.002 35.0994V37.5549L159.546 39.9937V44.8881H157.106L154.649 42.4492L157.106 39.9937V37.5549L159.546 35.0994V32.6605H162.002L164.442 30.2051H169.338Z" fill="#FCCFCF"/>
<path d="M166.899 86.4822V88.9211L162.002 84.0433H159.546V81.5879H162.002L164.442 84.0433H166.899V86.4822Z" fill="#FCCFCF"/>
<path d="M166.898 88.9197H164.442V91.3752H162.002V88.9197H157.105V84.042H162.002L166.898 88.9197Z" fill="#FCCFCF"/>
<path d="M164.442 96.2701V98.709H159.545L157.106 96.2701H154.649V93.8146L149.77 88.9203L152.209 86.4814L154.649 88.9203H162.002V93.8146L164.442 96.2701Z" fill="#FCCFCF"/>
<path d="M162.002 101.164V103.603L159.545 106.059H157.105V103.603L159.545 101.164V98.709L162.002 101.164Z" fill="#FCCFCF"/>
<path d="M159.546 98.709V101.164H157.106L154.649 98.709H159.546Z" fill="#FCCFCF"/>
<path d="M159.545 101.165L157.105 103.604H154.648L152.209 106.06H149.769L147.312 103.604V101.165L142.416 96.2709H144.872L147.312 93.8154H149.769L157.105 101.165H159.545Z" fill="#FCCFCF"/>
<path d="M157.106 103.602V106.057H154.649L152.209 108.496L149.77 106.057H152.209L154.649 103.602H157.106Z" fill="#FCCFCF"/>
<path d="M154.649 125.621V132.971L152.209 135.41H149.77V130.515L154.649 125.621Z" fill="#FCCFCF"/>
<path d="M154.649 110.954V113.393L149.77 118.288V115.832L152.209 113.393V110.954L149.77 108.499H154.649V110.954Z" fill="#FCCFCF"/>
<path d="M154.649 93.8133V96.2687H152.209L149.769 93.8133H147.312V91.3744L149.769 88.9189L154.649 93.8133Z" fill="#FCCFCF"/>
<path d="M154.65 84.042V88.9197L152.21 86.4808L154.65 84.042Z" fill="#FCCFCF"/>
<path d="M154.65 84.042L152.21 86.4808V84.042H154.65Z" fill="#FCCFCF"/>
<path d="M152.209 110.954V113.393L149.769 115.832L147.312 113.393H144.872L142.416 110.954L144.872 108.499H149.769L152.209 110.954Z" fill="#FCCFCF"/>
<path d="M152.209 84.042V86.4808C152.143 86.4144 149.77 84.042 149.77 84.042H152.209Z" fill="#FCCFCF"/>
<path d="M152.21 86.4799L149.771 88.9187H144.874V91.3742L142.418 88.9187H139.978L137.521 86.4799L139.978 84.041H144.874L147.314 86.4799L149.771 84.041V86.4799H152.21Z" fill="#FCCFCF"/>
<path d="M152.209 86.4808H149.77V84.042C149.77 84.042 152.143 86.4144 152.209 86.4808Z" fill="#FCCFCF"/>
<path d="M149.769 115.83V118.286L147.313 120.725L144.873 118.286V113.392H147.313L149.769 115.83Z" fill="#FCCFCF"/>
<path d="M149.769 88.9189L144.873 93.8133V88.9189H149.769Z" fill="#FCCFCF"/>
<path d="M149.769 108.496H144.873V103.602L149.769 108.496Z" fill="#FCCFCF"/>
<path d="M147.312 128.077V130.515L144.872 132.971V135.41L142.416 137.865V128.077H144.872V125.621H147.312V128.077Z" fill="#FCCFCF"/>
<path d="M147.315 123.181V125.62H142.418L139.979 123.181V120.726L142.418 118.287H144.875L147.315 120.726V123.181Z" fill="#FCCFCF"/>
<path d="M147.313 91.376V93.8149L144.873 96.2703V93.8149L147.313 91.376Z" fill="#FCCFCF"/>
<path d="M144.856 125.621H142.416V128.06H144.856V125.621Z" fill="#FCCFCF"/>
<path d="M144.875 115.832H139.979V118.271H144.875V115.832Z" fill="#FCCFCF"/>
<path d="M144.874 113.393V115.832H139.978L137.521 113.393V110.954H142.418L144.874 113.393Z" fill="#FCCFCF"/>
<path d="M144.874 106.058V108.497L142.417 110.953H137.521L135.081 108.497V106.058H137.521V101.164H144.874V106.058Z" fill="#FCCFCF"/>
<path d="M144.872 93.8154V96.2709L142.416 93.8154H144.872Z" fill="#FCCFCF"/>
<path d="M144.872 91.376V93.8149H142.416L144.872 91.376Z" fill="#FCCFCF"/>
<path d="M144.874 96.2709H142.418V98.7098L144.874 101.165H137.521V93.8154H142.418L144.874 96.2709Z" fill="#FCCFCF"/>
<path d="M139.977 140.303V137.864L137.537 140.303H139.977ZM142.417 137.864V140.303L137.521 145.197H132.624V142.758L130.185 140.32H132.624V135.409L135.064 137.847L139.96 132.953H142.4V135.409H139.96L142.417 137.864Z" fill="#FCCFCF"/>
<path d="M142.418 135.407V137.863L139.979 135.407H142.418Z" fill="#FCCFCF"/>
<path d="M142.418 128.075V132.97H139.978L137.521 130.514L139.978 128.075H142.418Z" fill="#FCCFCF"/>
<path d="M142.418 125.619V128.074H139.979V123.18L142.418 125.619Z" fill="#FCCFCF"/>
<path d="M142.418 118.287L139.979 120.726V118.287H142.418Z" fill="#FCCFCF"/>
<path d="M139.978 137.863V140.302H137.521L139.978 137.863Z" fill="#FCCFCF"/>
<path d="M139.977 123.18V128.075L137.521 125.619H135.081V123.18H132.624L130.185 120.725L132.624 118.286V115.83L135.081 113.392H137.521L139.977 115.83V123.18Z" fill="#FCCFCF"/>
<path d="M139.978 17.9789L137.521 20.4344H132.625L135.081 22.8732L132.625 25.3287V27.7676L130.185 30.2064L127.729 27.7676V17.9789H130.185L132.625 15.54H137.521L139.978 17.9789Z" fill="#FCCFCF"/>
<path d="M139.977 128.077L137.521 130.515H135.081V125.621H137.521L139.977 128.077Z" fill="#FCCFCF"/>
<path d="M139.977 132.97L135.08 137.864L132.624 135.409L135.08 132.97V130.515H137.52L139.977 132.97Z" fill="#FCCFCF"/>
<path d="M137.521 110.954V113.393H135.081L132.624 115.832H130.185V113.393L135.081 108.499L137.521 110.954Z" fill="#FCCFCF"/>
<path d="M137.521 103.603V106.058H135.081V108.497L130.185 113.392V101.164H132.624L135.081 103.603H137.521Z" fill="#FCCFCF"/>
<path d="M137.521 101.165V103.604H135.081L132.624 101.165H127.728L125.288 98.7092V93.8148L127.728 91.376L132.624 96.2703L135.081 93.8148H137.521V101.165Z" fill="#FCCFCF"/>
<path d="M137.521 25.3291L135.081 27.768V25.3291H137.521Z" fill="#FCCFCF"/>
<path d="M135.081 130.515V132.97L132.625 135.409V140.303H130.185V135.409L127.729 132.97V130.515H135.081Z" fill="#FCCFCF"/>
<path d="M135.081 125.62V130.514H127.729V128.075L130.185 125.62L127.729 123.181V120.726H130.185L132.625 123.181H135.081V125.62Z" fill="#FCCFCF"/>
<path d="M132.625 115.832V118.288L130.185 120.726H127.729V118.288H130.185V115.832H132.625Z" fill="#FCCFCF"/>
<path d="M130.184 115.832V118.288H127.728V120.726L125.288 118.288L127.728 115.832H130.184Z" fill="#FCCFCF"/>
<path d="M130.184 113.393V115.832H125.288V113.393L130.184 108.499V113.393Z" fill="#FCCFCF"/>
<path d="M130.186 101.164V108.497H120.394V106.058L125.29 101.164H130.186Z" fill="#FCCFCF"/>
<path d="M130.185 108.499L125.288 113.393H122.849V108.499H130.185Z" fill="#FCCFCF"/>
<path d="M127.728 88.9189V91.3744L125.288 93.8133V88.9189H127.728Z" fill="#FCCFCF"/>
<path d="M127.728 115.832L125.288 118.288V115.832H127.728Z" fill="#FCCFCF"/>
<path d="M127.728 101.163H125.288L122.848 103.602H120.392L113.056 96.2688H115.496L117.952 93.8133V91.3744H120.392L122.848 88.9189H125.288V98.7076L127.728 101.163Z" fill="#FCCFCF"/>
<path d="M122.833 108.499H120.394V113.393H122.833V108.499Z" fill="#FCCFCF"/>
<path d="M122.849 103.602L120.392 106.058H117.952L115.496 108.497V110.952H113.056L110.6 108.497V106.058H115.496V98.708L120.392 103.602H122.849Z" fill="#FCCFCF"/>
<path d="M120.391 110.954H117.951V113.393H120.391V110.954Z" fill="#FCCFCF"/>
<path d="M120.391 108.499V110.954H117.951L120.391 108.499Z" fill="#FCCFCF"/>
<path d="M120.391 106.058V108.496L117.952 110.952H115.495V108.496L117.952 106.058H120.391Z" fill="#FCCFCF"/>
<path d="M117.952 110.954V113.393H115.496L113.056 115.832V110.954H117.952Z" fill="#FCCFCF"/>
<path d="M117.952 91.376V93.8149L115.496 96.2703H110.6L115.496 91.376H117.952Z" fill="#FCCFCF"/>
<path d="M115.496 98.7084V106.058H108.16V101.164H110.6V98.7084H113.056V96.2695L115.496 98.7084Z" fill="#FCCFCF"/>
<path d="M147.313 76.6889V79.1443H135.081V76.6889L137.521 74.25H144.874L147.313 76.6889Z" fill="#FCCFCF"/>
<path d="M142.417 71.7983V74.2537H137.521L135.081 76.6926V71.7983H137.521L139.977 69.3594L142.417 71.7983Z" fill="#FCCFCF"/>
<path d="M142.417 59.5683L137.521 64.4627L135.081 62.0072V59.5683L137.521 57.1129V54.674L135.081 52.2351V49.7797L137.521 47.3408H139.977V57.1129L142.417 59.5683Z" fill="#FCCFCF"/>
<path d="M142.418 79.1445L139.979 81.5834V79.1445H142.418Z" fill="#FCCFCF"/>
<path d="M142.419 47.3412H137.523L135.083 49.7801H132.627V52.2355L130.187 54.6744V57.1133L127.73 59.5687V66.9019H125.29L122.851 64.4631V59.5687H125.29L127.73 57.1133V54.6744L130.187 52.2355V49.7801L132.627 47.3412H135.083L137.523 44.8857H139.979L142.419 47.3412Z" fill="#FCCFCF"/>
<path d="M139.977 81.5834V84.0388H137.521L135.081 81.5834V79.1445H139.977V81.5834Z" fill="#FCCFCF"/>
<path d="M139.977 66.9014H135.081V69.3403H139.977V66.9014Z" fill="#FCCFCF"/>
<path d="M139.977 64.4648V66.9037H135.081L137.521 64.4648H139.977Z" fill="#FCCFCF"/>
<path d="M139.977 69.3594L137.521 71.7983H135.081V69.3594H139.977Z" fill="#FCCFCF"/>
<path d="M137.519 84.04V86.4789L135.079 88.9177L132.623 86.4789H135.079L137.519 84.04Z" fill="#FCCFCF"/>
<path d="M137.521 84.0394L135.081 86.4783V81.584L137.521 84.0394Z" fill="#FCCFCF"/>
<path d="M137.52 54.6736H135.08V57.1125L132.624 59.568V64.4623L130.184 66.9012V69.3566H127.728V59.568L130.184 57.1125V54.6736L132.624 52.2348V49.7793H135.08V52.2348L137.52 54.6736Z" fill="#FCCFCF"/>
<path d="M135.08 84.04V86.4788L132.623 84.04H135.08Z" fill="#FCCFCF"/>
<path d="M135.08 81.5834V84.0388H132.623V81.5834L135.08 79.1445V81.5834Z" fill="#FCCFCF"/>
<path d="M135.063 76.6914H132.623V79.1303H135.063V76.6914Z" fill="#FCCFCF"/>
<path d="M135.08 71.7983V76.6926H132.623L130.184 74.2537V71.7983L132.623 69.3594H135.08V71.7983Z" fill="#FCCFCF"/>
<path d="M135.08 79.1445L132.623 81.5834L130.184 79.1445H135.08Z" fill="#FCCFCF"/>
<path d="M135.08 86.4788H132.623V84.04L135.08 86.4788Z" fill="#FCCFCF"/>
<path d="M132.623 81.584V84.0394L130.184 81.584H132.623Z" fill="#FCCFCF"/>
<path d="M132.624 76.6914H127.728V79.1303H132.624V76.6914Z" fill="#FCCFCF"/>
<path d="M132.625 86.4777L130.185 88.9166V86.4777L125.289 81.5834L127.729 79.1445L130.185 81.5834H127.729L132.625 86.4777Z" fill="#FCCFCF"/>
<path d="M132.624 76.6889H127.728L130.184 74.25L132.624 76.6889Z" fill="#FCCFCF"/>
<path d="M132.623 81.5834H130.184V79.1445L132.623 81.5834Z" fill="#FCCFCF"/>
<path d="M130.184 79.1445V81.5834L127.728 79.1445H130.184Z" fill="#FCCFCF"/>
<path d="M130.187 71.7959V74.2514L127.73 76.6902V79.1457H125.29L122.851 76.6902V74.2514H125.29V71.7959H130.187Z" fill="#FCCFCF"/>
<path d="M127.729 79.1445L125.289 81.5834V79.1445H127.729Z" fill="#FCCFCF"/>
<path d="M127.729 86.4788H125.289C125.306 86.4291 125.289 84.04 125.289 84.04L127.729 86.4788Z" fill="#FCCFCF"/>
<path d="M125.287 79.1469V81.5857L122.847 84.0412H117.951V76.6914H122.847L125.287 79.1469Z" fill="#FCCFCF"/>
<path d="M125.29 71.7959V74.2514H122.851L125.29 71.7959Z" fill="#FCCFCF"/>
<path d="M122.849 74.25V76.6889H120.393L122.849 74.25Z" fill="#FCCFCF"/>
<path d="M120.393 84.04V86.4789L117.953 88.9177H115.496V86.4789L113.057 84.04H120.393Z" fill="#FCCFCF"/>
<path d="M120.391 71.798V74.2535L117.952 76.6924L115.495 74.2535L117.952 71.798L115.495 69.3592V64.4648L117.952 66.9037V69.3592L120.391 71.798Z" fill="#FCCFCF"/>
<path d="M115.496 86.4789V88.9177H113.056L110.6 86.4789L113.056 84.04L115.496 86.4789Z" fill="#FCCFCF"/>
<path d="M115.496 71.7983L113.057 74.2537V69.3594L115.496 71.7983Z" fill="#FCCFCF"/>
<path d="M113.056 110.954V115.832L110.6 113.393L113.056 110.954Z" fill="#FCCFCF"/>
<path d="M113.056 96.2695V98.7084H110.6V101.164H108.16V98.7084L110.6 96.2695H113.056Z" fill="#FCCFCF"/>
<path d="M113.056 110.954L110.6 113.393L108.16 110.954H113.056Z" fill="#FCCFCF"/>
<path d="M113.056 110.954H108.16L110.6 108.499L113.056 110.954Z" fill="#FCCFCF"/>
<path d="M110.598 106.058V108.497H105.702L108.159 106.058H110.598Z" fill="#FCCFCF"/>
<path d="M110.6 54.6762L108.16 57.115H103.264V54.6762H105.704L108.16 52.2373L110.6 54.6762Z" fill="#FCCFCF"/>
<path d="M110.598 108.499L108.159 110.954L105.702 108.499H110.598Z" fill="#FCCFCF"/>
<path d="M56.7563 101.164V103.603H54.3164L56.7563 101.164Z" fill="#FCCFCF"/>
<path d="M93.4712 120.728V125.622L91.0313 128.078V132.972L88.5749 135.411H86.135L83.6786 137.866V140.305L81.2387 142.744L78.7823 140.305V137.866L81.2387 135.411L78.7823 132.972V130.516L73.886 125.622H68.9897L66.5498 123.183L68.9897 120.728V115.833H73.886L76.3424 113.395V115.833H83.6786V118.289H88.5749L91.0313 120.728H93.4712Z" fill="#FCCFCF"/>
<path d="M83.6791 115.833H81.2393V113.395L83.6791 115.833Z" fill="#FCCFCF"/>
<path d="M81.2231 113.395H78.7832V115.833H81.2231V113.395Z" fill="#FCCFCF"/>
<path d="M81.2385 135.409L78.782 137.864L73.8857 132.97H78.782L81.2385 135.409Z" fill="#FCCFCF"/>
<path d="M81.2391 142.74L78.7826 145.195L76.3428 142.74L78.7826 140.301L81.2391 142.74Z" fill="#FCCFCF"/>
<path d="M78.7822 145.197V147.636H76.3424L71.4461 152.53V157.425L68.9897 159.88L71.4461 162.319V164.775H68.9897V162.319L66.5498 159.88L68.9897 157.425V140.303L71.4461 137.864V135.409L73.8859 132.97L78.7822 137.864V140.303L76.3424 142.742L78.7822 145.197Z" fill="#FCCFCF"/>
<path d="M78.7828 130.513V132.969H73.8865L71.4467 135.408V132.969L68.9902 130.513V125.619H73.8865L78.7828 130.513Z" fill="#FCCFCF"/>
<path d="M78.7826 113.392V115.831H76.3428V110.953L78.7826 113.392Z" fill="#FCCFCF"/>
<path d="M76.3424 110.953V113.392L73.8859 115.831H71.4461V113.392H68.9896L66.5498 110.953L68.9896 108.498L71.4461 110.953H76.3424Z" fill="#FCCFCF"/>
<path d="M71.4467 135.407V137.862L68.9902 140.301V130.513L71.4467 132.968V135.407Z" fill="#FCCFCF"/>
<path d="M71.4465 113.392V115.831H68.9901V120.726L64.1104 115.831V110.954L66.5502 108.498H68.9901L66.5502 110.954L68.9901 113.392H71.4465Z" fill="#FCCFCF"/>
<path d="M68.9897 162.321V164.776L66.5498 162.321V159.882L68.9897 162.321Z" fill="#FCCFCF"/>
<path d="M68.9897 142.74V157.423L66.5498 159.878V142.74L68.9897 140.301V142.74Z" fill="#FCCFCF"/>
<path d="M68.9904 125.62V130.515L61.6543 123.181V120.726L64.1107 118.287H66.5506L68.9904 120.726L66.5506 123.181L68.9904 125.62Z" fill="#FCCFCF"/>
<path d="M66.5506 103.603H64.1107L61.6543 101.164H64.1107L66.5506 103.603Z" fill="#FCCFCF"/>
<path d="M66.5506 118.288H64.1107L61.6543 120.726V118.288L64.1107 115.832L66.5506 118.288Z" fill="#FCCFCF"/>
<path d="M64.1111 110.953V113.392H61.6547L59.2148 110.953H64.1111Z" fill="#FCCFCF"/>
<path d="M61.6551 110.953H59.2152L56.7588 108.498H59.2152L61.6551 110.953Z" fill="#FCCFCF"/>
<path d="M59.1986 106.058H56.7588V108.497H59.1986V106.058Z" fill="#FCCFCF"/>
<path d="M56.7582 106.059V108.498L54.3184 106.059L56.7582 103.604V106.059Z" fill="#FCCFCF"/>
<path d="M56.7576 103.604L54.3178 106.059V108.498L51.8613 106.059L54.3178 103.604H56.7576Z" fill="#FCCFCF"/>
<path d="M56.7582 108.497H54.3184V106.058L56.7582 108.497Z" fill="#FCCFCF"/>
<path d="M110.599 10.6441V13.083L105.703 17.9773V20.4328L103.263 22.8717V27.766L105.703 30.2049V37.5547L103.263 39.9935V47.3433H100.806V49.7822H95.9266V52.2376L93.4702 54.6765H91.0303V57.1154L86.134 62.0097H83.6776V59.5708L81.2377 57.1154V49.7822L83.6776 47.3433V44.8879L78.7813 39.9935V35.0992L73.885 30.2049L71.4451 32.6603L68.9887 30.2049V27.766L66.5488 25.3271L71.4451 20.4328V15.5385L76.3414 10.6441V8.18867H81.2377L83.6776 5.7498H86.134V3.29434H88.5739L91.0303 0.855469H98.3665L103.263 5.7498L100.806 8.18867H98.3665V10.6441H110.599Z" fill="#F22F46"/>
<path d="M81.2381 76.6934V79.1488H76.3418L78.7816 76.6934H81.2381Z" fill="#F22F46"/>
<path d="M78.7813 71.7965V74.2519L76.3415 76.6908H71.4452L73.885 79.1462V81.5851H71.4452V79.1462H68.9887V81.5851H64.1091V84.0406H61.6526L56.7563 79.1462H54.3165L51.86 76.6908H32.2914L29.835 79.1462V76.6908L27.3951 74.2519V71.7965L24.9387 69.3576V66.9021L22.4988 64.4632H20.0424L17.6025 62.0078V47.3414H20.0424L22.4988 49.7803V47.3414H24.9387L27.3951 44.8859L29.835 47.3414H34.7313L39.6276 52.2357H42.0674V49.7803H51.86V47.3414L49.4202 44.8859V42.4471L46.9637 39.9916V37.5527H54.3165L51.86 39.9916V44.8859L56.7563 49.7803H61.6526V52.2357H59.2128L56.7563 54.6746V57.1135L51.86 62.0078V64.4632L61.6526 74.2519L64.1091 71.7965L61.6526 69.3576L64.1091 66.9021V59.5689H66.5489L68.9887 62.0078V64.4632H73.885V66.9021L78.7813 71.7965Z" fill="#F22F46"/>
<path d="M73.886 52.2367V54.6756H71.4461V59.5699H68.9897L66.5498 57.1144H64.11L61.6535 54.6756H66.5498L68.9897 52.2367L64.11 47.3424H56.7572V44.8869L54.3174 42.448V39.9926L56.7572 37.5537H61.6535L71.4461 47.3424V49.7812L73.886 52.2367Z" fill="#F22F46"/>
<path d="M73.8858 5.75038V8.18925L71.4459 10.6447V13.0836L68.9895 15.539V17.9779H66.5496L64.1098 20.4334L66.5496 22.8722L64.1098 25.3277V27.7666L61.6533 30.2054H54.3172L56.757 32.6609H61.6533V35.0998H54.3172L51.8608 32.6609V30.2054L54.3172 27.7666H56.757V25.3277H54.3172L51.8608 22.8722V20.4334L49.4209 17.9779V15.539L51.8608 13.0836L56.757 17.9779H59.2135L61.6533 15.539H56.757L54.3172 13.0836V10.6447L56.757 8.18925H59.2135L64.1098 3.29492H71.4459L73.8858 5.75038Z" fill="#F22F46"/>
<path d="M71.4461 79.1488V81.5877L64.11 88.9209V91.3764L61.6535 93.8152V98.7096L59.2137 96.2707H49.4211V98.7096L44.5248 93.8152H37.1887L29.8359 86.482V79.1488L32.2924 76.6934H51.861L54.3174 79.1488H56.7572L61.6535 84.0432H64.11V81.5877H68.9897V79.1488H71.4461Z" fill="#F22F46"/>
<path d="M66.5492 49.7812L64.1094 52.2367V49.7812H66.5492Z" fill="#F22F46"/>
<path d="M61.6537 57.1147V59.5701H59.2139V54.6758L61.6537 57.1147Z" fill="#F22F46"/>
<path d="M54.3163 103.603L51.8598 106.059H46.9635L44.5237 103.603V101.164L37.1875 93.8145H44.5237L49.42 98.7088V101.164L51.8598 103.603H54.3163Z" fill="#F22F46"/>
<path d="M51.8607 32.6602V35.099H49.4209L51.8607 32.6602Z" fill="#F22F46"/>
<path d="M51.8596 25.3289V27.7678H49.4197V25.3289H44.5234V20.4346L46.9633 22.8734H49.4197L51.8596 25.3289Z" fill="#F22F46"/>
<path d="M49.4197 30.2051V35.0994H46.9633V32.6605L44.5234 30.2051H49.4197Z" fill="#F22F46"/>
<path d="M46.9647 47.3427H42.0684L39.6285 49.7816L37.1887 47.3427V44.8873H34.7322L32.2924 42.4484H29.8359V37.5541L32.2924 35.0986L37.1887 39.993H42.0684V37.5541H44.5248V44.8873L46.9647 47.3427Z" fill="#F22F46"/>
<path d="M44.524 32.6605L42.0676 35.0994H37.1879L34.7314 32.6605L37.1879 30.2051L39.6277 32.6605H42.0676L39.6277 30.2051H42.0676L44.524 32.6605Z" fill="#F22F46"/>
<path d="M39.6274 25.3266V27.7654L37.1875 25.3266L39.6274 22.8711V25.3266Z" fill="#F22F46"/>
<path d="M37.1893 27.7646L32.293 32.659V30.2035L34.7328 27.7646H37.1893Z" fill="#F22F46"/>
<path d="M24.9395 66.9039V69.3593L22.4996 66.9039H20.0432L15.1469 62.0096L12.707 64.465H10.2672L7.81075 66.9039H5.3709L0.474609 62.0096L2.91446 59.5707V57.1152H0.474609V54.6764L2.91446 52.2375L0.474609 49.782L5.3709 44.8877H12.707L15.1469 47.3432H17.6033V62.0096L20.0432 64.465H22.4996L24.9395 66.9039Z" fill="#F22F46"/>
</svg>
