<svg width="255" height="164" viewBox="0 0 255 164" fill="none" xmlns="http://www.w3.org/2000/svg">
<path d="M193.346 22.0162V24.4717H190.889V22.0162H188.45L183.553 17.1219L185.993 14.683V12.2275H188.45V17.1219H190.889V19.5773L193.346 22.0162Z" fill="#FCCFCF"/>
<path d="M254.524 51.3832V53.822L252.085 56.2609L249.628 53.822H247.188V58.7164H244.732L239.835 63.6107H234.956V68.505L232.499 70.9439V73.3994L230.059 75.8382V68.505L232.499 66.0496V63.6107L234.956 61.1552L232.499 58.7164L227.603 63.6107H220.267L215.371 68.505L220.267 73.3994L217.81 75.8382V78.2937L215.371 80.7326V83.188H212.914V78.2937L210.474 75.8382V73.3994L208.018 70.9439H205.578V73.3994L203.138 75.8382H193.346L190.889 73.3994H188.449L185.993 75.8382H178.657L173.76 70.9439H171.321L168.864 68.505L166.424 70.9439H161.528V73.3994H154.175V78.2937L151.735 80.7326L154.175 83.188H149.296L146.839 80.7326V75.8382L144.399 73.3994H141.943V70.9439L139.503 68.505V61.1552L141.943 58.7164L139.503 56.2609V46.4888H144.399L149.296 51.3832L146.839 53.822H144.399V56.2609H146.839L154.175 48.9277H159.072L161.528 46.4888H163.968L166.424 48.9277V44.0334L168.864 41.5945V39.1391H171.321L173.76 41.5945H176.217V39.1391L178.657 36.7002H181.097V34.2447L183.553 31.8059H188.449L190.889 29.3504V26.9115L193.346 24.4727L195.785 26.9115V29.3504H200.682V31.8059L195.785 36.7002H200.682L203.138 39.1391H205.578L208.018 36.7002L210.474 39.1391V41.5945L212.914 44.0334L215.371 41.5945H217.81L220.267 39.1391H222.707L227.603 44.0334H232.499L234.956 46.4888H244.732L247.188 48.9277H249.628L252.085 51.3832H254.524Z" fill="#FCCFCF"/>
<path d="M249.626 41.5957L247.186 44.0346V41.5957H249.626Z" fill="#FCCFCF"/>
<path d="M244.731 146.78V149.235L242.292 146.78V141.885L244.731 144.341V146.78Z" fill="#F22F46"/>
<path d="M244.732 149.235L242.292 151.674V154.129L239.835 156.568L237.396 154.129L242.292 149.235H244.732Z" fill="#F22F46"/>
<path d="M227.603 134.553V141.886L225.163 144.342V146.781H220.267L217.81 144.342H215.37V141.886L212.914 139.448L210.474 141.886H208.018L205.578 144.342H203.138L200.682 141.886V137.009L198.242 134.553L200.682 132.114H203.138L208.018 127.22H210.474L212.914 124.765H215.37V127.22L217.81 129.659H220.267V124.765L222.707 127.22V129.659L227.603 134.553Z" fill="#F22F46"/>
<path d="M225.161 122.325V124.764L222.704 122.325H220.265V119.87H222.704L225.161 122.325Z" fill="#F22F46"/>
<path d="M225.163 31.8047V34.2436L222.707 31.8047H225.163Z" fill="#FCCFCF"/>
<path d="M225.163 149.235L222.707 151.674V149.235H225.163Z" fill="#F22F46"/>
<path d="M222.704 73.3988V75.8377L220.265 78.2932V70.9434L222.704 73.3988Z" fill="#FCCFCF"/>
<path d="M222.706 31.8056L220.266 34.2444H217.81L215.37 31.8056L217.81 29.3501L220.266 31.8056H222.706Z" fill="#FCCFCF"/>
<path d="M222.706 80.7334L220.266 83.1888V85.6277L217.809 83.1888L220.266 80.7334H222.706Z" fill="#F22F46"/>
<path d="M220.266 119.87V122.325H217.81L215.37 119.87H212.914L210.474 117.431H217.81L220.266 119.87Z" fill="#F22F46"/>
<path d="M220.266 85.627V88.0658L217.809 90.5213H212.913L215.37 88.0658H217.809L220.266 85.627Z" fill="#F22F46"/>
<path d="M212.914 90.5195V92.9584H210.474L212.914 90.5195Z" fill="#F22F46"/>
<path d="M212.913 80.7334V83.1889L208.017 88.0666L205.577 85.6277H208.017L212.913 80.7334Z" fill="#F22F46"/>
<path d="M212.914 78.2932V80.732L208.018 85.6264H205.578L203.138 88.0652L205.578 90.5207V95.415L200.682 100.309H188.45V95.415H181.097L178.657 92.9596H176.217V90.5207L173.761 88.0652H171.321V85.6264H173.761L176.217 83.1875V80.732L181.097 75.8377L183.553 78.2932V80.732H185.993L188.45 83.1875H198.242V80.732H200.682L203.138 78.2932L200.682 75.8377H203.138L205.578 73.3988V70.9434H208.018L210.475 73.3988V75.8377L212.914 78.2932Z" fill="#F22F46"/>
<path d="M210.474 88.0658V90.5213H208.018V88.0658L210.474 85.627V88.0658Z" fill="#F22F46"/>
<path d="M208.017 110.098V112.537H205.577L208.017 110.098Z" fill="#F22F46"/>
<path d="M208.017 114.976L205.577 117.431V114.976H208.017Z" fill="#F22F46"/>
<path d="M208.017 107.643H205.577V105.205L208.017 107.643Z" fill="#F22F46"/>
<path d="M208.017 110.099H205.577V107.644L208.017 110.099Z" fill="#F22F46"/>
<path d="M205.577 119.87V122.325L203.137 119.87L205.577 117.431V119.87Z" fill="#F22F46"/>
<path d="M205.577 102.748V105.204H203.137L205.577 102.748Z" fill="#F22F46"/>
<path d="M205.577 97.8545V100.31H203.137L205.577 97.8545Z" fill="#F22F46"/>
<path d="M203.137 112.537V117.431L200.68 119.87H198.241L195.784 117.431V114.976L198.241 117.431H200.68V114.976L203.137 112.537Z" fill="#F22F46"/>
<path d="M203.138 78.2913L200.681 80.7302H198.242V83.1856H188.449L185.992 80.7302H183.553V78.2913L181.096 75.8358H185.992L188.449 73.397H190.889L193.345 75.8358H200.681L203.138 78.2913Z" fill="#F22F46"/>
<path d="M203.138 112.537L200.681 114.976V112.537H203.138Z" fill="#F22F46"/>
<path d="M203.137 124.764H195.785L193.345 122.325H200.681L203.137 124.764Z" fill="#F22F46"/>
<path d="M200.68 114.976V117.431H198.241L195.784 114.976H200.68Z" fill="#F22F46"/>
<path d="M200.682 112.537V114.976H198.242L200.682 112.537Z" fill="#F22F46"/>
<path d="M198.241 102.748V105.204L195.784 102.748H198.241Z" fill="#F22F46"/>
<path d="M198.241 107.643L195.785 110.099H193.345L195.785 107.643V105.205L198.241 107.643Z" fill="#F22F46"/>
<path d="M195.784 105.204V107.643L190.888 102.749V100.31L195.784 105.204Z" fill="#F22F46"/>
<path d="M195.784 100.31L193.344 102.749L190.888 100.31H195.784Z" fill="#F22F46"/>
<path d="M195.784 107.644L193.344 110.099L190.888 107.644H195.784Z" fill="#F22F46"/>
<path d="M195.785 107.642H190.889L188.449 110.098V102.748H190.889L195.785 107.642Z" fill="#F22F46"/>
<path d="M193.346 119.87V122.326H190.889L188.45 119.87V117.431L185.993 114.976V112.537L193.346 119.87Z" fill="#F22F46"/>
<path d="M193.344 114.976V117.431L190.888 114.976V112.537L193.344 114.976Z" fill="#F22F46"/>
<path d="M190.889 112.537V114.975L188.449 112.537V110.098L190.889 112.537Z" fill="#F22F46"/>
<path d="M190.888 100.31V102.749H188.448V105.205H185.992V102.749L183.552 100.31L188.448 95.416V100.31H190.888Z" fill="#F22F46"/>
<path d="M188.448 95.416L183.552 100.31V97.8549L185.992 95.416H188.448Z" fill="#F22F46"/>
<path d="M185.992 95.416L183.553 97.8549L181.096 95.416H185.992Z" fill="#F22F46"/>
<path d="M183.553 97.8545V100.31L181.096 102.749V97.8545H183.553Z" fill="#F22F46"/>
<path d="M183.552 97.8548H181.096L176.216 92.9604H178.656L183.552 97.8548Z" fill="#F22F46"/>
<path d="M181.096 97.8548V102.749H178.656V105.205H176.216V110.099H173.76L171.32 107.643V102.749H168.863V95.4159H171.32V92.9604H176.216L181.096 97.8548Z" fill="#F22F46"/>
<path d="M181.096 75.8386L176.216 80.7329V83.1884H168.864L166.424 85.6273V83.1884H163.967L161.528 80.7329H159.071V83.1884H156.631L154.175 80.7329L156.631 78.2941H154.175V73.3997H161.528V70.9442H166.424L168.864 68.5054L171.32 70.9442H173.76L178.656 75.8386H181.096Z" fill="#FCCFCF"/>
<path d="M178.656 112.538H176.217V110.099L178.656 112.538Z" fill="#F22F46"/>
<path d="M176.217 90.52H171.32V92.9589H176.217V90.52Z" fill="#FCCFCF"/>
<path d="M176.217 83.186L173.76 85.6248H166.424L168.864 83.186H176.217Z" fill="#FCCFCF"/>
<path d="M176.216 90.5194H173.76V88.064L176.216 90.5194Z" fill="#FCCFCF"/>
<path d="M173.76 88.064H171.32V90.5028H173.76V88.064Z" fill="#FCCFCF"/>
<path d="M171.32 92.9583V95.4137H168.864V100.308L166.424 97.8526H163.967V95.4137L171.32 88.064V92.9583Z" fill="#FCCFCF"/>
<path d="M171.32 85.6265H166.424V88.0653H171.32V85.6265Z" fill="#FCCFCF"/>
<path d="M171.32 88.064L163.968 95.4137L161.528 92.9583V90.5194H163.968V88.064H171.32Z" fill="#FCCFCF"/>
<path d="M168.864 29.3501L166.424 31.8056H163.967L161.528 34.2444V36.6999L159.071 39.1388V44.0331H156.631L154.175 41.5942L156.631 39.1388V36.6999L159.071 34.2444V31.8056H161.528L163.967 29.3501H168.864Z" fill="#FCCFCF"/>
<path d="M166.424 85.6272V88.0661L161.527 83.1884H159.071V80.7329H161.527L163.967 83.1884H166.424V85.6272Z" fill="#FCCFCF"/>
<path d="M166.423 88.0638H163.967V90.5192H161.527V88.0638H156.631V83.186H161.527L166.423 88.0638Z" fill="#FCCFCF"/>
<path d="M163.967 95.4151V97.854H159.071L156.631 95.4151H154.175V92.9597L149.295 88.0653L151.735 85.6265L154.175 88.0653H161.527V92.9597L163.967 95.4151Z" fill="#FCCFCF"/>
<path d="M161.527 100.309V102.748L159.07 105.204H156.631V102.748L159.07 100.309V97.854L161.527 100.309Z" fill="#FCCFCF"/>
<path d="M159.071 97.854V100.309H156.631L154.175 97.854H159.071Z" fill="#FCCFCF"/>
<path d="M159.071 100.31L156.631 102.749H154.174L151.734 105.204H149.295L146.838 102.749V100.31L141.942 95.4154H144.398L146.838 92.96H149.295L156.631 100.31H159.071Z" fill="#FCCFCF"/>
<path d="M156.631 102.746V105.202H154.175L151.735 107.64L149.295 105.202H151.735L154.175 102.746H156.631Z" fill="#FCCFCF"/>
<path d="M154.175 124.766V132.115L151.735 134.554H149.295V129.66L154.175 124.766Z" fill="#FCCFCF"/>
<path d="M154.175 110.099V112.538L149.295 117.432V114.977L151.735 112.538V110.099L149.295 107.644H154.175V110.099Z" fill="#FCCFCF"/>
<path d="M154.174 92.9583V95.4137H151.734L149.295 92.9583H146.838V90.5194L149.295 88.064L154.174 92.9583Z" fill="#FCCFCF"/>
<path d="M154.175 83.186V88.0637L151.735 85.6249L154.175 83.186Z" fill="#FCCFCF"/>
<path d="M154.175 83.186L151.735 85.6248V83.186H154.175Z" fill="#FCCFCF"/>
<path d="M151.735 110.099V112.538L149.295 114.977L146.838 112.538H144.398L141.942 110.099L144.398 107.644H149.295L151.735 110.099Z" fill="#FCCFCF"/>
<path d="M151.735 83.186V85.6248C151.668 85.5585 149.295 83.186 149.295 83.186H151.735Z" fill="#FCCFCF"/>
<path d="M151.736 85.6249L149.296 88.0638H144.399V90.5192L141.943 88.0638H139.503L137.047 85.6249L139.503 83.186H144.399L146.839 85.6249L149.296 83.186V85.6249H151.736Z" fill="#FCCFCF"/>
<path d="M151.735 85.6248H149.295V83.186C149.295 83.186 151.668 85.5585 151.735 85.6248Z" fill="#FCCFCF"/>
<path d="M149.295 114.975V117.431L146.839 119.87L144.399 117.431V112.537H146.839L149.295 114.975Z" fill="#FCCFCF"/>
<path d="M149.295 88.064L144.399 92.9583V88.064H149.295Z" fill="#FCCFCF"/>
<path d="M149.295 107.64H144.399V102.746L149.295 107.64Z" fill="#FCCFCF"/>
<path d="M146.838 127.221V129.66L144.398 132.115V134.554L141.942 137.01V127.221H144.398V124.766H146.838V127.221Z" fill="#FCCFCF"/>
<path d="M146.84 122.326V124.765H141.943L139.503 122.326V119.871L141.943 117.432H144.4L146.84 119.871V122.326Z" fill="#FCCFCF"/>
<path d="M146.839 90.52V92.9589L144.399 95.4144V92.9589L146.839 90.52Z" fill="#FCCFCF"/>
<path d="M144.382 124.766H141.942V127.205H144.382V124.766Z" fill="#FCCFCF"/>
<path d="M144.4 114.977H139.503V117.416H144.4V114.977Z" fill="#FCCFCF"/>
<path d="M144.399 112.538V114.976H139.503L137.047 112.538V110.099H141.943L144.399 112.538Z" fill="#FCCFCF"/>
<path d="M144.399 105.203V107.642L141.942 110.098H137.046L134.606 107.642V105.203H137.046V100.309H144.399V105.203Z" fill="#FCCFCF"/>
<path d="M144.398 92.96V95.4154L141.942 92.96H144.398Z" fill="#FCCFCF"/>
<path d="M144.398 90.52V92.9589H141.942L144.398 90.52Z" fill="#FCCFCF"/>
<path d="M144.399 95.4154H141.943V97.8543L144.399 100.31H137.047V92.96H141.943L144.399 95.4154Z" fill="#FCCFCF"/>
<path d="M139.502 139.448V137.009L137.063 139.448H139.502ZM141.942 137.009V139.448L137.046 144.342H132.15V141.903L129.71 139.465H132.15V134.554L134.59 136.992L139.486 132.098H141.926V134.554H139.486L141.942 137.009Z" fill="#FCCFCF"/>
<path d="M141.943 134.552V137.007L139.503 134.552H141.943Z" fill="#FCCFCF"/>
<path d="M141.943 127.22V132.114H139.503L137.047 129.659L139.503 127.22H141.943Z" fill="#FCCFCF"/>
<path d="M141.943 124.764V127.219H139.503V122.325L141.943 124.764Z" fill="#FCCFCF"/>
<path d="M141.943 117.432L139.503 119.871V117.432H141.943Z" fill="#FCCFCF"/>
<path d="M139.503 137.007V139.446H137.047L139.503 137.007Z" fill="#FCCFCF"/>
<path d="M139.502 122.325V127.22L137.046 124.764H134.606V122.325H132.15L129.71 119.87L132.15 117.431V114.975L134.606 112.537H137.046L139.502 114.975V122.325Z" fill="#FCCFCF"/>
<path d="M139.503 17.1234L137.047 19.5789H132.15L134.607 22.0178L132.15 24.4732V26.9121L129.71 29.351L127.254 26.9121V17.1234H129.71L132.15 14.6846H137.047L139.503 17.1234Z" fill="#FCCFCF"/>
<path d="M139.502 127.221L137.046 129.66H134.606V124.766H137.046L139.502 127.221Z" fill="#FCCFCF"/>
<path d="M139.502 132.115L134.606 137.009L132.149 134.553L134.606 132.115V129.659H137.046L139.502 132.115Z" fill="#FCCFCF"/>
<path d="M137.046 110.099V112.538H134.606L132.15 114.977H129.71V112.538L134.606 107.644L137.046 110.099Z" fill="#FCCFCF"/>
<path d="M137.046 102.748V105.203H134.606V107.642L129.71 112.537V100.309H132.15L134.606 102.748H137.046Z" fill="#FCCFCF"/>
<path d="M137.046 100.309V102.748H134.606L132.15 100.309H127.254L124.814 97.8532V92.9589L127.254 90.52L132.15 95.4143L134.606 92.9589H137.046V100.309Z" fill="#FCCFCF"/>
<path d="M137.046 24.4736L134.606 26.9125V24.4736H137.046Z" fill="#FCCFCF"/>
<path d="M134.607 129.659V132.115L132.15 134.554V139.448H129.71V134.554L127.254 132.115V129.659H134.607Z" fill="#FCCFCF"/>
<path d="M134.607 124.764V129.659H127.254V127.22L129.71 124.764L127.254 122.326V119.87H129.71L132.15 122.326H134.607V124.764Z" fill="#FCCFCF"/>
<path d="M132.15 114.977V117.433L129.71 119.871H127.254V117.433H129.71V114.977H132.15Z" fill="#FCCFCF"/>
<path d="M129.71 114.977V117.433H127.254V119.871L124.814 117.433L127.254 114.977H129.71Z" fill="#FCCFCF"/>
<path d="M129.71 112.538V114.977H124.814V112.538L129.71 107.644V112.538Z" fill="#FCCFCF"/>
<path d="M129.712 100.309V107.642H119.919V105.203L124.815 100.309H129.712Z" fill="#FCCFCF"/>
<path d="M129.71 107.644L124.814 112.538H122.374V107.644H129.71Z" fill="#FCCFCF"/>
<path d="M127.254 88.064V90.5194L124.814 92.9583V88.064H127.254Z" fill="#FCCFCF"/>
<path d="M127.254 114.977L124.814 117.433V114.977H127.254Z" fill="#FCCFCF"/>
<path d="M127.253 100.308H124.813L122.373 102.747H119.917L112.581 95.4138H115.021L117.477 92.9583V90.5194H119.917L122.373 88.064H124.813V97.8527L127.253 100.308Z" fill="#FCCFCF"/>
<path d="M122.359 107.644H119.919V112.538H122.359V107.644Z" fill="#FCCFCF"/>
<path d="M122.374 102.747L119.917 105.203H117.477L115.021 107.642V110.097H112.581L110.125 107.642V105.203H115.021V97.853L119.917 102.747H122.374Z" fill="#FCCFCF"/>
<path d="M119.917 110.099H117.477V112.538H119.917V110.099Z" fill="#FCCFCF"/>
<path d="M119.917 107.644V110.099H117.477L119.917 107.644Z" fill="#FCCFCF"/>
<path d="M119.917 105.202V107.641L117.477 110.096H115.02V107.641L117.477 105.202H119.917Z" fill="#FCCFCF"/>
<path d="M117.477 110.099V112.538H115.021L112.581 114.976V110.099H117.477Z" fill="#FCCFCF"/>
<path d="M117.477 90.52V92.9589L115.021 95.4144H110.125L115.021 90.52H117.477Z" fill="#FCCFCF"/>
<path d="M115.021 97.8529V105.203H107.685V100.308H110.125V97.8529H112.582V95.4141L115.021 97.8529Z" fill="#FCCFCF"/>
<path d="M146.838 75.8334V78.2888H134.606V75.8334L137.046 73.3945H144.399L146.838 75.8334Z" fill="#FCCFCF"/>
<path d="M141.942 70.9428V73.3983H137.046L134.606 75.8371V70.9428H137.046L139.502 68.5039L141.942 70.9428Z" fill="#FCCFCF"/>
<path d="M141.942 58.7129L137.046 63.6072L134.606 61.1517V58.7129L137.046 56.2574V53.8185L134.606 51.3797V48.9242L137.046 46.4854H139.502V56.2574L141.942 58.7129Z" fill="#FCCFCF"/>
<path d="M141.943 78.2891L139.503 80.7279V78.2891H141.943Z" fill="#FCCFCF"/>
<path d="M141.944 46.4857H137.048L134.608 48.9246H132.152V51.3801L129.712 53.8189V56.2578L127.255 58.7133V66.0465H124.816L122.376 63.6076V58.7133H124.816L127.255 56.2578V53.8189L129.712 51.3801V48.9246L132.152 46.4857H134.608L137.048 44.0303H139.504L141.944 46.4857Z" fill="#FCCFCF"/>
<path d="M139.502 80.7279V83.1834H137.046L134.606 80.7279V78.2891H139.502V80.7279Z" fill="#FCCFCF"/>
<path d="M139.502 66.0459H134.606V68.4848H139.502V66.0459Z" fill="#FCCFCF"/>
<path d="M139.502 63.6089V66.0478H134.606L137.046 63.6089H139.502Z" fill="#FCCFCF"/>
<path d="M139.502 68.5039L137.046 70.9428H134.606V68.5039H139.502Z" fill="#FCCFCF"/>
<path d="M137.045 83.1846V85.6234L134.605 88.0623L132.148 85.6234H134.605L137.045 83.1846Z" fill="#FCCFCF"/>
<path d="M137.046 83.1835L134.606 85.6223V80.728L137.046 83.1835Z" fill="#FCCFCF"/>
<path d="M137.046 53.8177H134.606V56.2565L132.149 58.712V63.6063L129.709 66.0452V68.5007H127.253V58.712L129.709 56.2565V53.8177L132.149 51.3788V48.9233H134.606V51.3788L137.046 53.8177Z" fill="#FCCFCF"/>
<path d="M134.605 83.1846V85.6234L132.148 83.1846H134.605Z" fill="#FCCFCF"/>
<path d="M134.605 80.7279V83.1834H132.148V80.7279L134.605 78.2891V80.7279Z" fill="#FCCFCF"/>
<path d="M134.588 75.8359H132.148V78.2748H134.588V75.8359Z" fill="#FCCFCF"/>
<path d="M134.605 70.9428V75.8371H132.149L129.709 73.3983V70.9428L132.149 68.5039H134.605V70.9428Z" fill="#FCCFCF"/>
<path d="M134.605 78.2891L132.149 80.7279L129.709 78.2891H134.605Z" fill="#FCCFCF"/>
<path d="M134.605 85.6234H132.148V83.1846L134.605 85.6234Z" fill="#FCCFCF"/>
<path d="M132.149 80.728V83.1835L129.709 80.728H132.149Z" fill="#FCCFCF"/>
<path d="M132.149 75.8359H127.253V78.2748H132.149V75.8359Z" fill="#FCCFCF"/>
<path d="M132.151 85.6222L129.711 88.0611V85.6222L124.814 80.7279L127.254 78.2891L129.711 80.7279H127.254L132.151 85.6222Z" fill="#FCCFCF"/>
<path d="M132.149 75.8334H127.253L129.709 73.3945L132.149 75.8334Z" fill="#FCCFCF"/>
<path d="M132.149 80.7279H129.709V78.2891L132.149 80.7279Z" fill="#FCCFCF"/>
<path d="M129.709 78.2891V80.7279L127.253 78.2891H129.709Z" fill="#FCCFCF"/>
<path d="M129.712 70.9399V73.3954L127.255 75.8343V78.2897H124.816L122.376 75.8343V73.3954H124.816V70.9399H129.712Z" fill="#FCCFCF"/>
<path d="M127.254 78.2891L124.814 80.7279V78.2891H127.254Z" fill="#FCCFCF"/>
<path d="M127.254 85.6234H124.814C124.831 85.5736 124.814 83.1846 124.814 83.1846L127.254 85.6234Z" fill="#FCCFCF"/>
<path d="M124.813 78.2914V80.7303L122.373 83.1857H117.477V75.8359H122.373L124.813 78.2914Z" fill="#FCCFCF"/>
<path d="M124.816 70.9399V73.3954H122.376L124.816 70.9399Z" fill="#FCCFCF"/>
<path d="M122.374 73.3945V75.8334H119.917L122.374 73.3945Z" fill="#FCCFCF"/>
<path d="M119.918 83.1846V85.6234L117.478 88.0623H115.021V85.6234L112.582 83.1846H119.918Z" fill="#FCCFCF"/>
<path d="M119.917 70.9421V73.3975L117.477 75.8364L115.02 73.3975L117.477 70.9421L115.02 68.5032V63.6089L117.477 66.0478V68.5032L119.917 70.9421Z" fill="#FCCFCF"/>
<path d="M115.021 85.6234V88.0623H112.581L110.125 85.6234L112.581 83.1846L115.021 85.6234Z" fill="#FCCFCF"/>
<path d="M115.021 70.9428L112.582 73.3983V68.5039L115.021 70.9428Z" fill="#FCCFCF"/>
<path d="M112.581 110.099V114.976L110.125 112.538L112.581 110.099Z" fill="#FCCFCF"/>
<path d="M112.582 95.4141V97.8529H110.125V100.308H107.685V97.8529L110.125 95.4141H112.582Z" fill="#FCCFCF"/>
<path d="M112.582 110.099L110.125 112.538L107.685 110.099H112.582Z" fill="#FCCFCF"/>
<path d="M112.582 110.099H107.685L110.125 107.644L112.582 110.099Z" fill="#FCCFCF"/>
<path d="M110.124 105.202V107.641H105.228L107.684 105.202H110.124Z" fill="#FCCFCF"/>
<path d="M110.125 53.8207L107.685 56.2596H102.789V53.8207H105.229L107.685 51.3818L110.125 53.8207Z" fill="#FCCFCF"/>
<path d="M110.124 107.644L107.684 110.099L105.228 107.644H110.124Z" fill="#FCCFCF"/>
<path d="M56.2819 100.309V102.748H53.842L56.2819 100.309Z" fill="#FCCFCF"/>
<path d="M92.9965 119.872V124.767L90.5567 127.222V132.116L88.1002 134.555H85.6604L83.2039 137.011V139.45L80.7641 141.888L78.3076 139.45V137.011L80.7641 134.555L78.3076 132.116V129.661L73.4113 124.767H68.515L66.0752 122.328L68.515 119.872V114.978H73.4113L75.8678 112.539V114.978H83.2039V117.433H88.1002L90.5567 119.872H92.9965Z" fill="#FCCFCF"/>
<path d="M83.204 114.978H80.7642V112.539L83.204 114.978Z" fill="#FCCFCF"/>
<path d="M80.748 112.539H78.3081V114.978H80.748V112.539Z" fill="#FCCFCF"/>
<path d="M80.7639 134.553L78.3074 137.009L73.4111 132.114H78.3074L80.7639 134.553Z" fill="#FCCFCF"/>
<path d="M80.764 141.884L78.3075 144.34L75.8677 141.884L78.3075 139.445L80.764 141.884Z" fill="#FCCFCF"/>
<path d="M78.3076 144.342V146.781H75.8678L70.9715 151.675V156.569L68.515 159.025L70.9715 161.464V163.919H68.515V161.464L66.0752 159.025L68.515 156.569V139.447L70.9715 137.009V134.553L73.4113 132.114L78.3076 137.009V139.447L75.8678 141.886L78.3076 144.342Z" fill="#FCCFCF"/>
<path d="M78.3082 129.658V132.113H73.4119L70.9721 134.552V132.113L68.5156 129.658V124.763H73.4119L78.3082 129.658Z" fill="#FCCFCF"/>
<path d="M78.3075 112.537V114.975H75.8677V110.098L78.3075 112.537Z" fill="#FCCFCF"/>
<path d="M75.8678 110.098V112.537L73.4113 114.976H70.9715V112.537H68.515L66.0752 110.098L68.515 107.643L70.9715 110.098H75.8678Z" fill="#FCCFCF"/>
<path d="M70.9721 134.552V137.007L68.5156 139.446V129.657L70.9721 132.113V134.552Z" fill="#FCCFCF"/>
<path d="M70.9719 112.537V114.976H68.5154V119.87L63.6357 114.976V110.098L66.0756 107.643H68.5154L66.0756 110.098L68.5154 112.537H70.9719Z" fill="#FCCFCF"/>
<path d="M68.5151 161.465V163.921L66.0752 161.465V159.026L68.5151 161.465Z" fill="#FCCFCF"/>
<path d="M68.5151 141.884V156.567L66.0752 159.023V141.884L68.5151 139.445V141.884Z" fill="#FCCFCF"/>
<path d="M68.5161 124.764V129.659L61.1799 122.325V119.87L63.6364 117.431H66.0762L68.5161 119.87L66.0762 122.325L68.5161 124.764Z" fill="#FCCFCF"/>
<path d="M66.0762 102.747H63.6364L61.1799 100.309H63.6364L66.0762 102.747Z" fill="#FCCFCF"/>
<path d="M66.0762 117.432H63.6364L61.1799 119.87V117.432L63.6364 114.976L66.0762 117.432Z" fill="#FCCFCF"/>
<path d="M63.6358 110.098V112.537H61.1794L58.7395 110.098H63.6358Z" fill="#FCCFCF"/>
<path d="M61.18 110.098H58.7401L56.2837 107.643H58.7401L61.18 110.098Z" fill="#FCCFCF"/>
<path d="M58.7235 105.202H56.2837V107.641H58.7235V105.202Z" fill="#FCCFCF"/>
<path d="M56.2831 105.203V107.642L53.8433 105.203L56.2831 102.748V105.203Z" fill="#FCCFCF"/>
<path d="M56.2828 102.748L53.8429 105.203V107.642L51.3865 105.203L53.8429 102.748H56.2828Z" fill="#FCCFCF"/>
<path d="M56.2831 107.641H53.8433V105.202L56.2831 107.641Z" fill="#FCCFCF"/>
<path d="M110.125 9.78866V12.2275L105.228 17.1219V19.5773L102.788 22.0162V26.9105L105.228 29.3494V36.6992L102.788 39.1381V46.4878H100.332V48.9267H95.4522V51.3822L92.9958 53.821H90.5559V56.2599L85.6596 61.1542H83.2032V58.7154L80.7634 56.2599V48.9267L83.2032 46.4878V44.0324L78.3069 39.1381V34.2437L73.4106 29.3494L70.9708 31.8049L68.5143 29.3494V26.9105L66.0745 24.4717L70.9708 19.5773V14.683L75.8671 9.78866V7.3332H80.7634L83.2032 4.89433H85.6596V2.43887H88.0995L90.5559 0H97.8921L102.788 4.89433L100.332 7.3332H97.8921V9.78866H110.125Z" fill="#FCCFCF"/>
<path d="M80.7632 75.8384V78.2938H75.8669L78.3068 75.8384H80.7632Z" fill="#FCCFCF"/>
<path d="M78.307 70.9415V73.3969L75.8671 75.8358H70.9708L73.4107 78.2913V80.7301H70.9708V78.2913H68.5144V80.7301H63.6347V83.1856H61.1782L56.2819 78.2913H53.8421L51.3857 75.8358H31.8171L29.3606 78.2913V75.8358L26.9208 73.3969V70.9415L24.4643 68.5026V66.0471L22.0245 63.6083H19.568L17.1282 61.1528V46.4864H19.568L22.0245 48.9253V46.4864H24.4643L26.9208 44.031L29.3606 46.4864H34.2569L39.1532 51.3807H41.5931V48.9253H51.3857V46.4864L48.9458 44.031V41.5921L46.4894 39.1366V36.6978H53.8421L51.3857 39.1366V44.031L56.2819 48.9253H61.1782V51.3807H58.7384L56.2819 53.8196V56.2585L51.3857 61.1528V63.6083L61.1782 73.3969L63.6347 70.9415L61.1782 68.5026L63.6347 66.0471V58.7139H66.0745L68.5144 61.1528V63.6083H73.4107V66.0471L78.307 70.9415Z" fill="#FCCFCF"/>
<path d="M73.4111 51.3807V53.8196H70.9713V58.7139H68.5148L66.075 56.2585H63.6351L61.1787 53.8196H66.075L68.5148 51.3807L63.6351 46.4864H56.2824V44.031L53.8425 41.5921V39.1366L56.2824 36.6978H61.1787L70.9713 46.4864V48.9253L73.4111 51.3807Z" fill="#FCCFCF"/>
<path d="M73.4112 4.89491V7.33378L70.9713 9.78924V12.2281L68.5149 14.6836V17.1224H66.075L63.6352 19.5779L66.075 22.0168L63.6352 24.4722V26.9111L61.1787 29.35H53.8426L56.2824 31.8054H61.1787V34.2443H53.8426L51.3861 31.8054V29.35L53.8426 26.9111H56.2824V24.4722H53.8426L51.3861 22.0168V19.5779L48.9463 17.1224V14.6836L51.3861 12.2281L56.2824 17.1224H58.7389L61.1787 14.6836H56.2824L53.8426 12.2281V9.78924L56.2824 7.33378H58.7389L63.6352 2.43945H70.9713L73.4112 4.89491Z" fill="#FCCFCF"/>
<path d="M70.9713 78.2938V80.7327L63.6351 88.0659V90.5214L61.1787 92.9603V97.8546L58.7388 95.4157H48.9463V97.8546L44.05 92.9603H36.7138L29.3611 85.627V78.2938L31.8175 75.8384H51.3861L53.8425 78.2938H56.2824L61.1787 83.1882H63.6351V80.7327H68.5148V78.2938H70.9713Z" fill="#FCCFCF"/>
<path d="M66.0749 48.9258L63.635 51.3812V48.9258H66.0749Z" fill="#FCCFCF"/>
<path d="M61.1794 56.2592V58.7147H58.7395V53.8203L61.1794 56.2592Z" fill="#FCCFCF"/>
<path d="M53.8421 102.748L51.3857 105.204H46.4894L44.0495 102.748V100.309L36.7134 92.9595H44.0495L48.9458 97.8538V100.309L51.3857 102.748H53.8421Z" fill="#FCCFCF"/>
<path d="M51.3861 31.8047V34.2436H48.9463L51.3861 31.8047Z" fill="#FCCFCF"/>
<path d="M51.3852 24.4734V26.9123H48.9454V24.4734H44.0491V19.5791L46.4889 22.018H48.9454L51.3852 24.4734Z" fill="#FCCFCF"/>
<path d="M48.9454 29.3496V34.2439H46.4889V31.8051L44.0491 29.3496H48.9454Z" fill="#FCCFCF"/>
<path d="M46.4898 46.4873H41.5935L39.1537 48.9261L36.7138 46.4873V44.0318H34.2574L31.8175 41.5929H29.3611V36.6986L31.8175 34.2432L36.7138 39.1375H41.5935V36.6986H44.05V44.0318L46.4898 46.4873Z" fill="#FCCFCF"/>
<path d="M44.0492 31.8051L41.5927 34.2439H36.713L34.2566 31.8051L36.713 29.3496L39.1529 31.8051H41.5927L39.1529 29.3496H41.5927L44.0492 31.8051Z" fill="#FCCFCF"/>
<path d="M39.1532 24.4716V26.9105L36.7134 24.4716L39.1532 22.0161V24.4716Z" fill="#FCCFCF"/>
<path d="M36.7142 26.9092L31.8179 31.8035V29.348L34.2577 26.9092H36.7142Z" fill="#FCCFCF"/>
<path d="M24.4649 66.0484V68.5039L22.025 66.0484H19.5686L14.6723 61.1541L12.2324 63.6095H9.79259L7.33614 66.0484H4.89629L0 61.1541L2.43985 58.7152V56.2598H0V53.8209L2.43985 51.382L0 48.9266L4.89629 44.0322H12.2324L14.6723 46.4877H17.1287V61.1541L19.5686 63.6095H22.025L24.4649 66.0484Z" fill="#FCCFCF"/>
</svg>
