<svg width="491" height="40" viewBox="0 0 491 40" fill="none" xmlns="http://www.w3.org/2000/svg">
<g clip-path="url(#clip0_401_35366)">
<path d="M20.5956 0.5C9.61629 0.5 0.726562 9.2246 0.726562 20C0.726562 30.7754 9.61629 39.5 20.5956 39.5C31.575 39.5 40.4647 30.7754 40.4647 20C40.4647 9.2246 31.575 0.5 20.5956 0.5ZM20.5956 34.3556C12.5205 34.3556 5.96831 27.9251 5.96831 20C5.96831 12.0749 12.5205 5.64439 20.5956 5.64439C28.6708 5.64439 35.2229 12.0749 35.2229 20C35.2229 27.9251 28.6708 34.3556 20.5956 34.3556Z" fill="white"/>
<path d="M21.4102 15.1337C21.4102 12.9091 23.2519 11.0669 25.554 11.0669C27.8207 11.0669 29.6978 12.8744 29.6978 15.1337C29.6978 17.3583 27.8561 19.2006 25.554 19.2006C23.2519 19.2006 21.4102 17.3931 21.4102 15.1337Z" fill="white"/>
<path d="M21.4102 24.8315C21.4102 22.6069 23.2519 20.7646 25.554 20.7646C27.8207 20.7646 29.6978 22.5721 29.6978 24.8315C29.6978 27.0561 27.8561 28.8983 25.554 28.8983C23.2519 28.8983 21.4102 27.0909 21.4102 24.8315Z" fill="white"/>
<path d="M11.5293 24.8315C11.5293 22.6069 13.371 20.7646 15.6731 20.7646C17.9752 20.7646 19.7815 22.6069 19.7815 24.8315C19.7815 27.0561 17.9398 28.8983 15.6377 28.8983C13.3356 28.8983 11.5293 27.0909 11.5293 24.8315Z" fill="white"/>
<path d="M11.5293 15.1337C11.5293 12.9091 13.371 11.0669 15.6731 11.0669C17.9752 11.0669 19.8169 12.8744 19.8169 15.1337C19.8169 17.3583 17.9752 19.2006 15.6731 19.2006C13.371 19.2006 11.5293 17.3931 11.5293 15.1337Z" fill="white"/>
</g>
<path d="M62.7739 27.3952C65.8739 27.3952 67.9339 25.7552 67.9339 22.5952C67.9339 19.5152 65.6339 18.9552 62.8739 18.4952C61.2539 18.2352 60.2139 17.9552 60.2139 16.6952C60.2139 15.4152 61.1339 14.7952 62.5139 14.7952C64.1939 14.7952 66.1339 15.2952 67.5339 16.2552V13.6952C66.5339 13.0352 64.6539 12.4352 62.5739 12.4352C59.3739 12.4352 57.2539 14.0552 57.2539 17.1152C57.2539 20.2952 59.3939 20.7952 62.2339 21.2752C63.8339 21.5352 64.9739 21.7552 64.9739 23.0552C64.9739 24.3552 64.1339 24.9752 62.7339 24.9752C60.9939 24.9752 59.1139 24.3752 57.4539 23.1752V25.8552C58.7539 26.7352 60.4739 27.3952 62.7739 27.3952ZM74.5539 27.3552C75.4939 27.3552 76.3739 27.1352 76.7939 26.9552V24.9552C76.5339 25.0352 76.0339 25.0952 75.6939 25.0952C74.6339 25.0952 74.0339 24.6552 74.0339 23.5352V18.3552H76.9339V16.1152H74.0739V12.6352H71.4739L71.2939 14.7752C71.2139 15.9552 70.6339 16.2152 69.9139 16.2152L69.0939 16.2352V18.3552H71.1139V23.9752C71.1139 26.2952 72.0939 27.3552 74.5539 27.3552ZM81.6016 27.3952C83.4216 27.3952 84.5216 26.4152 85.1816 25.0352V27.1152H87.9616V19.8152C87.9616 17.1352 86.2616 15.8352 83.1816 15.8352C81.1216 15.8352 79.6016 16.4752 78.7816 16.9352V19.3552C79.9416 18.5152 81.5016 18.0952 82.7616 18.0952C84.3016 18.0952 85.0616 18.7552 85.0616 20.0752V20.2352L83.3016 20.4752C79.9616 20.9352 78.4616 22.3152 78.4616 24.3952C78.4616 26.2752 79.7216 27.3952 81.6016 27.3952ZM82.8816 25.3552C81.9216 25.3552 81.2416 24.8952 81.2416 23.9752C81.2416 23.0352 81.9016 22.3952 83.5616 22.1352L85.0616 21.9152V23.1552C85.0616 24.6552 84.0016 25.3552 82.8816 25.3552ZM94.9836 27.3552C95.9236 27.3552 96.8036 27.1352 97.2236 26.9552V24.9552C96.9636 25.0352 96.4636 25.0952 96.1236 25.0952C95.0636 25.0952 94.4636 24.6552 94.4636 23.5352V18.3552H97.3636V16.1152H94.5036V12.6352H91.9036L91.7236 14.7752C91.6436 15.9552 91.0636 16.2152 90.3436 16.2152L89.5236 16.2352V18.3552H91.5436V23.9752C91.5436 26.2952 92.5236 27.3552 94.9836 27.3552ZM104.516 27.3952C106.256 27.3952 107.516 26.9552 108.356 26.5152V24.3752C107.336 24.8352 106.276 25.1152 105.156 25.1152C103.016 25.1152 101.676 24.1352 101.556 22.3552H108.796V21.1952C108.796 17.6352 106.896 15.8352 103.836 15.8352C100.896 15.8352 98.6564 18.0152 98.6564 21.4352V21.7152C98.6564 25.4952 100.936 27.3952 104.516 27.3952ZM103.816 17.8752C105.096 17.8752 105.896 18.7752 105.996 20.5952H101.516C101.636 18.9552 102.416 17.8752 103.816 17.8752ZM120.366 27.3952C123.566 27.3952 125.826 25.2352 125.826 21.7352V21.4552C125.826 18.0152 123.486 15.8152 120.406 15.8152C117.206 15.8152 114.926 18.0352 114.926 21.4552V21.7352C114.926 25.2352 117.006 27.3952 120.366 27.3952ZM120.406 25.1552C118.826 25.1552 117.906 24.0152 117.906 21.6552V21.5152C117.906 19.1552 118.886 18.0152 120.406 18.0152C121.866 18.0152 122.846 19.1952 122.846 21.5152V21.6552C122.846 24.0552 121.886 25.1552 120.406 25.1552ZM128.928 27.0952H131.848V18.3552H134.588V16.1152H131.848V14.8552C131.848 13.6352 132.388 13.2552 133.408 13.2552C133.848 13.2552 134.368 13.3152 134.648 13.4152V11.3752C134.228 11.2552 133.488 11.1152 132.608 11.1152C130.488 11.1152 128.928 12.0152 128.928 14.4752V16.1152H126.928V18.3552H128.928V27.0952ZM146.711 27.3552C148.171 27.3552 149.071 27.0952 149.831 26.6952V24.3352C149.011 24.6952 148.071 24.8552 147.211 24.8552C144.451 24.8552 142.911 23.2152 142.911 19.9752V19.8352C142.911 16.5752 144.551 14.8752 147.231 14.8952C148.231 14.9152 149.031 15.0752 149.811 15.4352V13.0552C149.071 12.7152 147.951 12.4752 146.791 12.4752C142.531 12.4752 139.831 15.2352 139.831 19.7952V20.0752C139.831 24.6552 142.371 27.3552 146.711 27.3552ZM155.231 27.3952C156.911 27.3952 158.211 26.4552 159.051 24.7952V27.1152H161.831V16.1152H158.911V22.6352C158.911 23.2152 158.771 23.7152 158.551 24.1152C158.151 24.7352 157.551 25.1352 156.691 25.1352C155.391 25.1352 154.791 24.3152 154.791 22.7152V16.1152H151.871V23.4552C151.871 26.1152 153.031 27.3952 155.231 27.3952ZM168.546 27.3952C171.426 27.3952 173.046 25.8952 173.046 23.6552C173.046 21.1752 171.106 20.6752 168.966 20.3352C167.586 20.1152 166.966 19.9152 166.966 19.0752C166.966 18.3952 167.506 17.9152 168.726 17.9152C170.086 17.9152 171.526 18.3352 172.846 19.1352V16.8352C172.066 16.3552 170.626 15.8352 168.566 15.8352C166.066 15.8352 164.146 17.0952 164.146 19.4552C164.146 22.1352 166.086 22.5152 168.046 22.8152C169.606 23.0552 170.226 23.2752 170.226 24.1152C170.226 24.8352 169.686 25.2952 168.606 25.2952C167.306 25.2952 165.586 24.8352 164.346 24.0152V26.2352C165.286 26.8752 166.886 27.3952 168.546 27.3952ZM179.691 27.3552C180.631 27.3552 181.511 27.1352 181.931 26.9552V24.9552C181.671 25.0352 181.171 25.0952 180.831 25.0952C179.771 25.0952 179.171 24.6552 179.171 23.5352V18.3552H182.071V16.1152H179.211V12.6352H176.611L176.431 14.7752C176.351 15.9552 175.771 16.2152 175.051 16.2152L174.231 16.2352V18.3552H176.251V23.9752C176.251 26.2952 177.231 27.3552 179.691 27.3552ZM188.803 27.3952C192.003 27.3952 194.263 25.2352 194.263 21.7352V21.4552C194.263 18.0152 191.923 15.8152 188.843 15.8152C185.643 15.8152 183.363 18.0352 183.363 21.4552V21.7352C183.363 25.2352 185.443 27.3952 188.803 27.3952ZM188.843 25.1552C187.263 25.1552 186.343 24.0152 186.343 21.6552V21.5152C186.343 19.1552 187.323 18.0152 188.843 18.0152C190.303 18.0152 191.283 19.1952 191.283 21.5152V21.6552C191.283 24.0552 190.323 25.1552 188.843 25.1552ZM196.522 27.1152H199.442V20.5952C199.442 20.0952 199.562 19.5952 199.802 19.2152C200.142 18.6352 200.702 18.1352 201.602 18.1352C202.822 18.1352 203.382 18.8752 203.382 20.5752V27.1152H206.262L206.302 20.5952C206.302 20.1152 206.402 19.5952 206.662 19.2152C207.002 18.6352 207.602 18.1352 208.442 18.1352C209.682 18.1352 210.222 18.9752 210.222 20.5352V27.1152H213.142V19.7952C213.142 17.0752 211.942 15.8152 209.942 15.8152C208.222 15.8152 206.982 16.8952 206.082 18.5752C205.882 16.9552 204.882 15.8152 203.222 15.8152C201.442 15.8152 200.202 16.9552 199.322 18.5552V16.1152H196.522V27.1152ZM221.177 27.3952C222.917 27.3952 224.177 26.9552 225.017 26.5152V24.3752C223.997 24.8352 222.937 25.1152 221.817 25.1152C219.677 25.1152 218.337 24.1352 218.217 22.3552H225.457V21.1952C225.457 17.6352 223.557 15.8352 220.497 15.8352C217.557 15.8352 215.317 18.0152 215.317 21.4352V21.7152C215.317 25.4952 217.597 27.3952 221.177 27.3952ZM220.477 17.8752C221.757 17.8752 222.557 18.7752 222.657 20.5952H218.177C218.297 18.9552 219.077 17.8752 220.477 17.8752ZM227.733 27.1152H230.653V21.4752C230.653 19.8952 231.753 18.6752 233.353 18.6752C233.933 18.6752 234.453 18.8152 234.753 18.9352V16.0952C234.553 15.9952 234.173 15.8952 233.753 15.8952C232.173 15.8952 231.312 17.0552 230.533 19.2352V16.1152H227.733V27.1152ZM240.804 12.7152V27.1152H250.604V24.7152H243.764V21.0752H249.684V18.7352H243.764V15.0752H250.504V12.7152H240.804ZM252.811 27.1152H255.731V20.6552C255.731 20.1152 255.871 19.6552 256.151 19.2552C256.511 18.6152 257.171 18.1952 258.011 18.1952C259.251 18.1952 259.851 19.0152 259.851 20.4952V27.1152H262.771V19.8352C262.771 17.1552 261.631 15.8352 259.571 15.8352C257.711 15.8352 256.451 16.9552 255.611 18.6152V16.1152H252.811V27.1152ZM268.785 31.4952H269.405C273.565 31.4952 275.725 29.9552 275.725 27.6552C275.725 25.7552 274.345 25.0552 271.925 25.0552H269.085C268.065 25.0552 267.705 24.8952 267.705 24.5352C267.705 23.9552 268.645 23.6352 269.365 23.6352H269.825C272.525 23.6352 274.525 22.2152 274.525 19.8952C274.525 19.3752 274.345 18.7752 274.025 18.3552H275.865V16.1152H269.845C267.325 16.1152 265.125 17.4752 265.125 19.9752C265.125 21.5552 266.005 22.8152 267.665 23.3352C265.785 23.8152 265.045 24.5952 265.045 25.5352C265.045 26.2752 265.625 26.9352 267.305 27.1552C265.265 27.6152 264.365 28.4352 264.365 29.4352C264.365 31.0552 266.885 31.4952 268.785 31.4952ZM269.845 21.9352C268.485 21.9352 267.885 21.0552 267.885 19.9152C267.885 18.7552 268.525 17.8952 269.845 17.8952C271.205 17.8952 271.805 18.7552 271.805 19.8952C271.805 20.9952 271.245 21.9352 269.845 21.9352ZM270.065 29.5752H269.385C268.105 29.5752 267.205 29.3352 267.205 28.5952C267.205 27.8552 268.145 27.3152 269.525 27.3152H271.105C272.245 27.3152 272.885 27.4952 272.885 28.2352C272.885 29.0952 271.785 29.5752 270.065 29.5752ZM280.332 27.3952C282.152 27.3952 283.252 26.4152 283.912 25.0352V27.1152H286.692V19.8152C286.692 17.1352 284.992 15.8352 281.912 15.8352C279.852 15.8352 278.332 16.4752 277.512 16.9352V19.3552C278.672 18.5152 280.232 18.0952 281.492 18.0952C283.032 18.0952 283.792 18.7552 283.792 20.0752V20.2352L282.032 20.4752C278.692 20.9352 277.192 22.3152 277.192 24.3952C277.192 26.2752 278.452 27.3952 280.332 27.3952ZM281.612 25.3552C280.652 25.3552 279.972 24.8952 279.972 23.9752C279.972 23.0352 280.632 22.3952 282.292 22.1352L283.792 21.9152V23.1552C283.792 24.6552 282.732 25.3552 281.612 25.3552ZM292.652 31.4952H293.272C297.432 31.4952 299.592 29.9552 299.592 27.6552C299.592 25.7552 298.212 25.0552 295.792 25.0552H292.952C291.932 25.0552 291.572 24.8952 291.572 24.5352C291.572 23.9552 292.512 23.6352 293.232 23.6352H293.692C296.392 23.6352 298.392 22.2152 298.392 19.8952C298.392 19.3752 298.212 18.7752 297.892 18.3552H299.732V16.1152H293.712C291.192 16.1152 288.992 17.4752 288.992 19.9752C288.992 21.5552 289.872 22.8152 291.532 23.3352C289.652 23.8152 288.912 24.5952 288.912 25.5352C288.912 26.2752 289.492 26.9352 291.172 27.1552C289.132 27.6152 288.232 28.4352 288.232 29.4352C288.232 31.0552 290.752 31.4952 292.652 31.4952ZM293.712 21.9352C292.352 21.9352 291.752 21.0552 291.752 19.9152C291.752 18.7552 292.392 17.8952 293.712 17.8952C295.072 17.8952 295.672 18.7552 295.672 19.8952C295.672 20.9952 295.112 21.9352 293.712 21.9352ZM293.932 29.5752H293.252C291.972 29.5752 291.072 29.3352 291.072 28.5952C291.072 27.8552 292.012 27.3152 293.392 27.3152H294.972C296.112 27.3152 296.752 27.4952 296.752 28.2352C296.752 29.0952 295.652 29.5752 293.932 29.5752ZM306.743 27.3952C308.483 27.3952 309.743 26.9552 310.583 26.5152V24.3752C309.563 24.8352 308.503 25.1152 307.383 25.1152C305.243 25.1152 303.903 24.1352 303.783 22.3552H311.023V21.1952C311.023 17.6352 309.123 15.8352 306.063 15.8352C303.123 15.8352 300.883 18.0152 300.883 21.4352V21.7152C300.883 25.4952 303.163 27.3952 306.743 27.3952ZM306.043 17.8752C307.323 17.8752 308.123 18.7752 308.223 20.5952H303.743C303.863 18.9552 304.643 17.8752 306.043 17.8752ZM313.299 27.1152H316.219V20.5952C316.219 20.0952 316.339 19.5952 316.579 19.2152C316.919 18.6352 317.479 18.1352 318.379 18.1352C319.599 18.1352 320.159 18.8752 320.159 20.5752V27.1152H323.039L323.079 20.5952C323.079 20.1152 323.179 19.5952 323.439 19.2152C323.779 18.6352 324.379 18.1352 325.219 18.1352C326.459 18.1352 326.999 18.9752 326.999 20.5352V27.1152H329.919V19.7952C329.919 17.0752 328.719 15.8152 326.719 15.8152C324.999 15.8152 323.759 16.8952 322.859 18.5752C322.659 16.9552 321.659 15.8152 319.999 15.8152C318.219 15.8152 316.979 16.9552 316.099 18.5552V16.1152H313.299V27.1152ZM337.954 27.3952C339.694 27.3952 340.954 26.9552 341.794 26.5152V24.3752C340.774 24.8352 339.714 25.1152 338.594 25.1152C336.454 25.1152 335.114 24.1352 334.994 22.3552H342.234V21.1952C342.234 17.6352 340.334 15.8352 337.274 15.8352C334.334 15.8352 332.094 18.0152 332.094 21.4352V21.7152C332.094 25.4952 334.374 27.3952 337.954 27.3952ZM337.254 17.8752C338.534 17.8752 339.334 18.7752 339.434 20.5952H334.954C335.074 18.9552 335.854 17.8752 337.254 17.8752ZM344.51 27.1152H347.43V20.6552C347.43 20.1152 347.57 19.6552 347.85 19.2552C348.21 18.6152 348.87 18.1952 349.71 18.1952C350.95 18.1952 351.55 19.0152 351.55 20.4952V27.1152H354.47V19.8352C354.47 17.1552 353.33 15.8352 351.27 15.8352C349.41 15.8352 348.15 16.9552 347.31 18.6152V16.1152H344.51V27.1152ZM361.624 27.3552C362.564 27.3552 363.444 27.1352 363.864 26.9552V24.9552C363.604 25.0352 363.104 25.0952 362.764 25.0952C361.704 25.0952 361.104 24.6552 361.104 23.5352V18.3552H364.004V16.1152H361.144V12.6352H358.544L358.364 14.7752C358.284 15.9552 357.704 16.2152 356.984 16.2152L356.164 16.2352V18.3552H358.184V23.9752C358.184 26.2952 359.164 27.3552 361.624 27.3552ZM370.745 27.1152H373.705V21.9952H375.645C377.085 21.9952 377.585 22.4752 378.005 23.7152L379.385 27.1152H382.685L380.885 23.0552C380.385 21.7152 379.925 21.0352 378.665 20.7752C380.725 20.4152 382.205 19.1752 382.205 16.9152C382.205 14.4352 380.645 12.7152 377.405 12.7152H370.745V27.1152ZM376.765 15.0152C378.325 15.0152 379.225 15.9152 379.225 17.2752C379.225 18.7352 378.465 19.6952 376.705 19.6952H373.705V15.0152H376.765ZM389.614 27.3952C391.354 27.3952 392.614 26.9552 393.454 26.5152V24.3752C392.434 24.8352 391.374 25.1152 390.254 25.1152C388.114 25.1152 386.774 24.1352 386.654 22.3552H393.894V21.1952C393.894 17.6352 391.994 15.8352 388.934 15.8352C385.994 15.8352 383.754 18.0152 383.754 21.4352V21.7152C383.754 25.4952 386.034 27.3952 389.614 27.3952ZM388.914 17.8752C390.194 17.8752 390.994 18.7752 391.094 20.5952H386.614C386.734 18.9552 387.514 17.8752 388.914 17.8752ZM396.17 31.1952H399.09V25.1752C399.87 26.6552 401.03 27.3952 402.65 27.3952C404.85 27.3952 406.77 25.3552 406.77 21.7352V21.4552C406.77 17.9352 405.15 15.8352 402.77 15.8352C400.97 15.8352 399.73 16.9752 398.97 18.6152V16.1152H396.17V31.1952ZM401.43 25.1552C399.89 25.1552 398.97 23.9952 398.97 21.6552V21.5152C398.97 19.2752 399.99 18.0552 401.45 18.0552C402.83 18.0552 403.79 19.2352 403.79 21.5152V21.6552C403.79 24.0152 402.87 25.1552 401.43 25.1552ZM413.96 27.3952C417.16 27.3952 419.42 25.2352 419.42 21.7352V21.4552C419.42 18.0152 417.08 15.8152 414 15.8152C410.8 15.8152 408.52 18.0352 408.52 21.4552V21.7352C408.52 25.2352 410.6 27.3952 413.96 27.3952ZM414 25.1552C412.42 25.1552 411.5 24.0152 411.5 21.6552V21.5152C411.5 19.1552 412.48 18.0152 414 18.0152C415.46 18.0152 416.44 19.1952 416.44 21.5152V21.6552C416.44 24.0552 415.48 25.1552 414 25.1552ZM421.678 27.1152H424.598V21.4752C424.598 19.8952 425.698 18.6752 427.298 18.6752C427.878 18.6752 428.398 18.8152 428.698 18.9352V16.0952C428.498 15.9952 428.118 15.8952 427.698 15.8952C426.118 15.8952 425.258 17.0552 424.478 19.2352V16.1152H421.678V27.1152ZM434.964 27.3552C435.904 27.3552 436.784 27.1352 437.204 26.9552V24.9552C436.944 25.0352 436.444 25.0952 436.104 25.0952C435.044 25.0952 434.444 24.6552 434.444 23.5352V18.3552H437.344V16.1152H434.484V12.6352H431.884L431.704 14.7752C431.624 15.9552 431.044 16.2152 430.324 16.2152L429.504 16.2352V18.3552H431.524V23.9752C431.524 26.2952 432.504 27.3552 434.964 27.3552ZM443.698 27.1152H453.218V25.7552H445.818L448.238 23.9752C450.678 22.1752 452.898 20.2352 452.898 16.9352C452.898 14.2552 451.458 12.4352 448.178 12.4352C446.098 12.4352 444.538 13.2752 443.758 13.9752V15.4552C444.958 14.3752 446.378 13.7552 447.958 13.7552C450.418 13.7552 451.298 15.0752 451.298 17.0952C451.298 19.8752 449.398 21.4352 447.098 23.2152L443.698 25.8752V27.1152ZM460.763 27.3952C464.063 27.3952 466.123 24.9752 466.123 20.0752V19.7952C466.123 14.8352 464.023 12.4352 460.763 12.4352C457.523 12.4352 455.423 14.8552 455.423 19.7952V20.0752C455.423 24.9752 457.483 27.3952 460.763 27.3952ZM460.783 26.0752C458.423 26.0752 457.023 24.1952 457.023 19.9752V19.8352C457.023 15.6152 458.403 13.7352 460.763 13.7352C463.143 13.7352 464.523 15.6152 464.523 19.8352V19.9752C464.523 24.1952 463.123 26.0752 460.783 26.0752ZM468.19 27.1152H477.71V25.7552H470.31L472.73 23.9752C475.17 22.1752 477.39 20.2352 477.39 16.9352C477.39 14.2552 475.95 12.4352 472.67 12.4352C470.59 12.4352 469.03 13.2752 468.25 13.9752V15.4552C469.45 14.3752 470.87 13.7552 472.45 13.7552C474.91 13.7552 475.79 15.0752 475.79 17.0952C475.79 19.8752 473.89 21.4352 471.59 23.2152L468.19 25.8752V27.1152ZM479.655 27.1152H489.175V25.7552H481.775L484.195 23.9752C486.635 22.1752 488.855 20.2352 488.855 16.9352C488.855 14.2552 487.415 12.4352 484.135 12.4352C482.055 12.4352 480.495 13.2752 479.715 13.9752V15.4552C480.915 14.3752 482.335 13.7552 483.915 13.7552C486.375 13.7552 487.255 15.0752 487.255 17.0952C487.255 19.8752 485.355 21.4352 483.055 23.2152L479.655 25.8752V27.1152Z" fill="white"/>
<defs>
<clipPath id="clip0_401_35366">
<rect width="132" height="39" fill="white" transform="translate(0.726562 0.5)"/>
</clipPath>
</defs>
</svg>
