<svg width="195" height="196" viewBox="0 0 195 196" fill="none" xmlns="http://www.w3.org/2000/svg">
<path d="M3.69393 90.7947L3.24217 95.7044L0.273438 95.3814L1.56419 82.0088L4.53292 82.2672L4.08116 87.1769L18.2794 88.5336L17.9567 92.0867L3.69393 90.7947Z" fill="#121C2D"/>
<path d="M3.75879 70.1223L5.17862 66.763L18.9897 69.5409L7.56651 61.1426L9.30902 57.2019L23.1846 59.8506L11.6969 51.7753L13.1167 48.416L27.3795 58.8815L25.4434 63.2745L12.0196 60.8842L22.991 68.9595L21.0549 73.3524L3.75879 70.1223Z" fill="#121C2D"/>
<path d="M20.6025 38.7252L22.7968 35.9473L36.2852 46.7358L34.0909 49.5137L20.6025 38.7252Z" fill="#121C2D"/>
<path d="M31.3809 26.7093L34.0914 24.4482L43.1267 35.1722L48.8705 30.327L50.9357 32.7819L42.4813 39.8881L31.3809 26.7093Z" fill="#121C2D"/>
<path d="M49.4512 13.5957L52.549 11.916L60.8098 27.0329L57.712 28.7126L49.4512 13.5957Z" fill="#121C2D"/>
<path d="M66.0371 15.0816L65.9725 14.7586C64.4882 9.39662 66.5534 5.45589 71.1355 4.16385C75.5886 2.93641 79.4609 5.26209 80.9452 10.5595L81.0098 10.8825C82.4941 16.2444 80.3644 20.1852 75.9113 21.4772C71.2001 22.7693 67.5214 20.4436 66.0371 15.0816ZM77.3957 11.7869L77.3311 11.6577C76.234 7.71697 74.2333 6.29572 71.8454 7.00634C69.3285 7.71697 68.3604 9.91344 69.5221 13.9188L69.5866 14.048C70.7483 18.1179 72.6844 19.4099 75.1369 18.6993C77.5893 17.9887 78.4928 15.7276 77.3957 11.7869Z" fill="#121C2D"/>
<path d="M114.57 2.29009L114.312 4.29275L105.728 3.25912L105.083 8.75029L112.763 9.65472L112.505 11.6574L104.825 10.753L104.179 16.2441L112.892 17.2778L112.634 19.345L101.469 18.053L103.534 0.998047L114.57 2.29009Z" fill="#121C2D"/>
<path d="M127.025 5.32617L130.187 6.55361L132.253 22.8333L137.609 9.52531L139.803 10.4297L133.35 26.4511L130.187 25.159L128.122 8.87929L122.766 22.1873L120.571 21.2829L127.025 5.32617Z" fill="#121C2D"/>
<path d="M145.806 23.9959L146 23.7375C149.356 19.4092 153.873 18.6986 157.939 21.8641C159.875 23.4145 160.972 25.2234 161.295 26.5154L159.875 28.3243C159.553 26.7738 158.52 24.965 156.778 23.6083C153.615 21.1534 150.517 22.1225 147.936 25.4172L147.807 25.5464C145.032 29.0995 145.161 32.1358 147.742 34.0738C149.872 35.7535 152.518 35.3013 154.712 32.5234L154.906 32.265L150.776 29.0349L152.002 27.4198L158.004 32.1358L156.778 33.7508C153.615 37.8208 149.614 38.1438 146.387 35.6243C142.837 32.7818 142.192 28.5827 145.806 23.9959Z" fill="#121C2D"/>
<path d="M174.267 38.8545L176.268 41.5678L166.071 56.8785L164.522 54.7466L167.168 50.8705L162.715 44.8625L158.262 46.2837L156.713 44.2165L174.267 38.8545ZM168.33 49.1262L173.686 41.3094L164.716 44.2165L168.33 49.1262Z" fill="#121C2D"/>
<path d="M176.783 59.3337L177.106 59.2045C182.204 57.2019 186.464 58.8815 188.335 63.7267C189.239 66.0524 189.239 68.1196 188.852 69.4117L186.722 70.2515C187.238 68.7656 187.238 66.6984 186.464 64.5665C185.044 60.8196 181.882 60.109 177.945 61.5948L177.816 61.6594C173.621 63.2745 172.201 65.9877 173.363 68.9594C174.331 71.4789 176.848 72.5126 180.139 71.2205L180.462 71.0913L178.59 66.2462L180.462 65.5355L183.237 72.7064L181.365 73.417C176.59 75.2904 172.976 73.4816 171.491 69.6701C169.749 65.3417 171.362 61.401 176.783 59.3337Z" fill="#121C2D"/>
<path d="M194.273 93.7024L192.272 93.8962L191.369 85.3041L185.819 85.8855L186.593 93.5732L184.592 93.767L183.818 86.0793L178.268 86.6608L179.171 95.382L177.106 95.5758L175.944 84.3997L193.111 82.5908L194.273 93.7024Z" fill="#121C2D"/>
<path d="M193.499 110.757L177.751 113.599L191.304 122.191L190.53 126.067L173.621 122.773L174.073 120.447L188.916 123.354L175.17 114.504L175.686 111.726L191.627 108.819L176.848 105.976L177.3 103.65L194.209 106.945L193.499 110.757Z" fill="#121C2D"/>
<path d="M179.817 149.066L178.01 148.097L182.14 140.474L177.235 137.825L173.557 144.608L171.75 143.639L175.428 136.856L170.523 134.207L166.329 141.96L164.521 140.991L169.878 131.106L185.044 139.311L179.817 149.066Z" fill="#121C2D"/>
<path d="M172.395 159.467L170.072 161.922L154.195 157.916L164.586 167.736L162.972 169.48L150.452 157.593L152.776 155.138L168.652 159.208L158.197 149.324L159.81 147.645L172.395 159.467Z" fill="#121C2D"/>
<path d="M147.87 178.137L152.324 175.424L153.421 177.233L142.449 184.016L141.352 182.207L145.805 179.494L137.932 166.573L140.061 165.281L147.87 178.137Z" fill="#121C2D"/>
<path d="M108.18 190.088C107.793 187.956 108.89 186.277 111.084 185.437C108.503 185.631 106.76 184.597 106.308 182.142C105.792 179.558 107.212 177.168 111.02 176.457L118.119 175.101L121.346 192.026L114.246 193.383C110.632 194.029 108.696 192.802 108.18 190.088ZM117.086 183.111L116.053 177.555L111.794 178.331C109.083 178.848 108.632 180.333 108.954 181.755C109.277 183.434 110.374 184.403 112.956 183.886L117.086 183.111ZM118.506 190.54L117.473 185.049L113.278 185.825C111.149 186.212 110.31 187.633 110.568 189.248C110.89 190.928 111.988 191.768 114.246 191.316L118.506 190.54Z" fill="#121C2D"/>
<path d="M96.6928 184.339L95.7893 195.063L93.3368 194.869L94.1758 184.274C94.434 181.238 93.3368 179.3 90.6263 179.106C87.8511 178.848 86.4959 180.592 86.2377 183.628L85.3987 194.223L82.9463 194.029L83.8498 183.305C84.237 178.912 86.6249 176.651 90.949 177.039C95.273 177.362 97.0155 179.946 96.6928 184.339Z" fill="#121C2D"/>
<path d="M70.1672 190.993L67.7793 190.282L72.8132 173.809L75.2011 174.519L70.1672 190.993Z" fill="#121C2D"/>
<path d="M55.7111 185.566L53.5169 184.403L60.616 171.16L53.3232 167.284L54.3558 165.281L63.7783 170.32L55.7111 185.566Z" fill="#121C2D"/>
<path d="M36.3497 173.486L31.9612 169.48C28.5407 166.315 28.3471 161.922 32.0257 157.981L32.2839 157.723C35.9625 153.782 40.222 153.588 43.6425 156.754L48.031 160.824L36.3497 173.486ZM35.898 170.32L44.8687 160.63L42.6099 158.498C39.9638 156.043 37.0597 156.302 34.1555 159.532L34.0264 159.661C31.1222 162.762 31.1222 165.863 33.7037 168.253L35.898 170.32Z" fill="#121C2D"/>
<path d="M12.2129 144.609L13.9554 143.51L18.6021 150.81L23.3134 147.839L19.183 141.314L20.9255 140.216L25.0559 146.74L29.7671 143.769L25.0559 136.339L26.7984 135.241L32.8004 144.738L18.2149 153.976L12.2129 144.609Z" fill="#121C2D"/>
<path d="M6.85644 133.109L4.59762 126.003C3.43595 122.321 4.85577 119.995 7.56635 119.09C10.2124 118.251 12.1485 119.543 13.1811 121.545C13.052 119.93 13.6974 119.026 15.3109 117.928L19.1831 115.021L20.0221 117.605L16.6016 120.059C14.9882 121.093 14.4719 121.998 15.1173 124.065L16.2144 127.489L22.5391 125.486L23.3135 127.812L6.85644 133.109ZM8.01812 130.137L14.3428 128.135L12.9875 123.936C12.2131 121.416 10.5996 120.835 8.59895 121.481C6.7919 122.062 5.95291 123.613 6.66283 125.938L8.01812 130.137Z" fill="#121C2D"/>
</svg>
