<svg width="132" height="39" viewBox="0 0 132 39" fill="none" xmlns="http://www.w3.org/2000/svg">
<path d="M92.9333 7.64697H86.1686C85.9915 7.64697 85.8145 7.78601 85.8145 7.99457V11.9919C85.8145 12.1657 85.9915 12.3395 86.1686 12.3395H92.9333C93.1104 12.3395 93.2875 12.1657 93.2875 11.9919V7.99457C93.2875 7.78601 93.1104 7.64697 92.9333 7.64697Z" fill="white"/>
<path d="M55.8531 25.5136C54.6489 25.5136 54.0468 25.027 54.0468 23.7061V19.2221H57.8364C58.0489 19.2221 58.1906 19.0831 58.1906 18.8746V14.7034L63.1844 31.0403C63.2553 31.2141 63.4324 31.3879 63.6449 31.3879H69.17C69.3825 31.3879 69.5595 31.2489 69.6304 31.0403L72.0033 23.8104L73.2075 27.5992L74.3055 31.0403C74.3763 31.2141 74.5534 31.3879 74.7659 31.3879H80.3264C80.5035 31.3879 80.716 31.2489 80.7868 31.0403L85.8515 14.6687V31.0403C85.8515 31.2489 85.9931 31.3879 86.2056 31.3879H92.9703C93.1474 31.3879 93.3245 31.2141 93.3245 31.0403V13.9387C93.3245 13.7649 93.1474 13.5911 92.9703 13.5911H79.4764C79.2993 13.5911 79.0868 13.7302 79.0159 13.9387L77.2805 20.4387L77.1742 20.7863L75.0846 13.8344C75.0138 13.6607 74.8367 13.4869 74.6242 13.4869H69.3825C69.17 13.4869 68.9929 13.6259 68.922 13.8344L66.9387 20.3692L66.8324 20.7168L66.7616 20.3692L65.9116 17.1366L65.0616 13.904C65.0261 13.7302 64.8136 13.5564 64.6365 13.5564H54.0468V7.99488C54.0468 7.75156 53.7989 7.57776 53.5864 7.64728L46.9988 9.66333C46.7508 9.73284 46.5738 9.97616 46.5738 10.2195V13.5564H44.8029C44.6258 13.5564 44.4487 13.7302 44.4487 13.904V18.8746C44.4487 19.0831 44.6258 19.2221 44.8029 19.2221H46.5738V25.305C46.5738 29.6152 48.9467 31.5965 53.3739 31.5965C55.0739 31.5965 56.7385 31.2489 57.9427 30.6927C58.0844 30.6232 58.1552 30.4842 58.1552 30.3451V25.4788C58.1552 25.2355 57.9073 25.0617 57.6948 25.166C57.2343 25.3398 56.6323 25.5136 55.8531 25.5136Z" fill="white"/>
<path d="M101.824 7.64697C102.001 7.64697 102.178 7.78601 102.178 7.99457V31.04C102.178 31.2138 102.001 31.3876 101.824 31.3876H95.0593C94.8467 31.3876 94.7051 31.2486 94.7051 31.04V7.99457C94.7051 7.78601 94.8822 7.64697 95.0593 7.64697H101.824Z" fill="white"/>
<path d="M110.75 7.64697C110.927 7.64697 111.104 7.78601 111.104 7.99457V11.9919C111.104 12.1657 110.927 12.3395 110.75 12.3395H103.986C103.808 12.3395 103.631 12.1657 103.631 11.9919V7.99457C103.631 7.78601 103.808 7.64697 103.986 7.64697H110.75Z" fill="white"/>
<path d="M110.75 13.5908C110.927 13.5908 111.104 13.7299 111.104 13.9384V31.04C111.104 31.2486 110.927 31.3876 110.75 31.3876H103.986C103.773 31.3876 103.631 31.2486 103.631 31.04V13.9384C103.631 13.7299 103.773 13.5908 103.986 13.5908H110.75Z" fill="white"/>
<path d="M121.943 13.1738C116.028 13.1738 111.813 17.4492 111.813 22.4198V22.4893C111.813 27.4599 115.993 31.6658 121.907 31.6658C127.822 31.6658 132.037 27.3904 132.037 22.4198V22.3503C132.001 17.345 127.822 13.1738 121.943 13.1738ZM124.847 22.4546C124.847 24.123 123.643 25.5134 121.943 25.5134C120.314 25.5134 118.968 24.123 118.968 22.3851V22.3155C118.968 20.6471 120.172 19.2567 121.872 19.2567C123.501 19.2567 124.847 20.6471 124.847 22.3851V22.4546Z" fill="white"/>
<path d="M19.8691 0C8.88972 0 0 8.7246 0 19.5C0 30.2754 8.88972 39 19.8691 39C30.8484 39 39.7381 30.2754 39.7381 19.5C39.7381 8.7246 30.8484 0 19.8691 0ZM19.8691 33.8556C11.7939 33.8556 5.24175 27.4251 5.24175 19.5C5.24175 11.5749 11.7939 5.14439 19.8691 5.14439C27.9442 5.14439 34.4964 11.5749 34.4964 19.5C34.4964 27.4251 27.9442 33.8556 19.8691 33.8556Z" fill="white"/>
<path d="M20.6831 14.6337C20.6831 12.4091 22.5248 10.5669 24.8269 10.5669C27.0936 10.5669 28.9707 12.3744 28.9707 14.6337C28.9707 16.8583 27.129 18.7006 24.8269 18.7006C22.5248 18.7006 20.6831 16.8931 20.6831 14.6337Z" fill="white"/>
<path d="M20.6831 24.3315C20.6831 22.1069 22.5248 20.2646 24.8269 20.2646C27.0936 20.2646 28.9707 22.0721 28.9707 24.3315C28.9707 26.5561 27.129 28.3983 24.8269 28.3983C22.5248 28.3983 20.6831 26.5909 20.6831 24.3315Z" fill="white"/>
<path d="M10.8027 24.3315C10.8027 22.1069 12.6444 20.2646 14.9465 20.2646C17.2487 20.2646 19.0549 22.1069 19.0549 24.3315C19.0549 26.5561 17.2133 28.3983 14.9111 28.3983C12.609 28.3983 10.8027 26.5909 10.8027 24.3315Z" fill="white"/>
<path d="M10.8027 14.6337C10.8027 12.4091 12.6444 10.5669 14.9465 10.5669C17.2487 10.5669 19.0904 12.3744 19.0904 14.6337C19.0904 16.8583 17.2487 18.7006 14.9465 18.7006C12.6444 18.7006 10.8027 16.8931 10.8027 14.6337Z" fill="white"/>
</svg>
