<svg width="30" height="25" viewBox="0 0 30 25" fill="none" xmlns="http://www.w3.org/2000/svg">
<path d="M9.67692 24.0955C20.5214 24.0955 26.4554 15.1025 26.4554 7.31704C26.4554 7.06404 26.4554 6.81104 26.4439 6.55804C27.5939 5.73004 28.5944 4.68354 29.3879 3.49904C28.3299 3.97054 27.1914 4.28104 25.9954 4.43054C27.2144 3.70604 28.1459 2.54454 28.5944 1.16454C27.4559 1.84304 26.1909 2.32604 24.8454 2.59054C23.7644 1.44054 22.2349 0.727539 20.5444 0.727539C17.2899 0.727539 14.6449 3.37254 14.6449 6.62704C14.6449 7.08704 14.7024 7.53554 14.7944 7.97254C9.89542 7.73104 5.54842 5.37354 2.63892 1.80854C2.13292 2.68254 1.84541 3.69454 1.84541 4.77554C1.84541 6.82254 2.89192 8.62804 4.46742 9.68604C3.50142 9.65154 2.59291 9.38704 1.79941 8.95004C1.79941 8.97304 1.79941 8.99604 1.79941 9.03054C1.79941 11.8825 3.83492 14.2745 6.52592 14.815C6.03142 14.953 5.51392 15.022 4.97342 15.022C4.59392 15.022 4.22592 14.9875 3.86942 14.9185C4.61692 17.2645 6.80192 18.9665 9.37792 19.0125C7.35392 20.5995 4.81242 21.5425 2.05242 21.5425C1.58092 21.5425 1.10941 21.5195 0.649414 21.462C3.24842 23.118 6.35342 24.0955 9.67692 24.0955Z" fill="#121C2D"/>
</svg>
