<svg width="47" height="47" viewBox="0 0 47 47" fill="none" xmlns="http://www.w3.org/2000/svg">
<path d="M17.6764 35.0955C28.5209 35.0955 34.4549 26.1025 34.4549 18.317C34.4549 18.064 34.4549 17.811 34.4434 17.558C35.5934 16.73 36.5939 15.6835 37.3874 14.499C36.3294 14.9705 35.1909 15.281 33.9949 15.4305C35.2139 14.706 36.1454 13.5445 36.5939 12.1645C35.4554 12.843 34.1904 13.326 32.8449 13.5905C31.7639 12.4405 30.2344 11.7275 28.5439 11.7275C25.2894 11.7275 22.6444 14.3725 22.6444 17.627C22.6444 18.087 22.7019 18.5355 22.7939 18.9725C17.8949 18.731 13.5479 16.3735 10.6384 12.8085C10.1324 13.6825 9.84493 14.6945 9.84493 15.7755C9.84493 17.8225 10.8914 19.628 12.4669 20.686C11.5009 20.6515 10.5924 20.387 9.79893 19.95C9.79893 19.973 9.79893 19.996 9.79893 20.0305C9.79893 22.8825 11.8344 25.2745 14.5254 25.815C14.0309 25.953 13.5134 26.022 12.9729 26.022C12.5934 26.022 12.2254 25.9875 11.8689 25.9185C12.6164 28.2645 14.8014 29.9665 17.3774 30.0125C15.3534 31.5995 12.8119 32.5425 10.0519 32.5425C9.58043 32.5425 9.10893 32.5195 8.64893 32.462C11.2479 34.118 14.3529 35.0955 17.6764 35.0955Z" fill="#121C2D"/>
</svg>
