<svg width="30" height="25" viewBox="0 0 30 25" fill="none" xmlns="http://www.w3.org/2000/svg">
<path d="M9.67643 24.0955C20.5209 24.0955 26.4549 15.1025 26.4549 7.31704C26.4549 7.06404 26.4549 6.81104 26.4434 6.55804C27.5934 5.73004 28.5939 4.68354 29.3874 3.49904C28.3294 3.97054 27.1909 4.28104 25.9949 4.43054C27.2139 3.70604 28.1454 2.54454 28.5939 1.16454C27.4554 1.84304 26.1904 2.32604 24.8449 2.59054C23.7639 1.44054 22.2344 0.727539 20.5439 0.727539C17.2894 0.727539 14.6444 3.37254 14.6444 6.62704C14.6444 7.08704 14.7019 7.53554 14.7939 7.97254C9.89493 7.73104 5.54793 5.37354 2.63843 1.80854C2.13243 2.68254 1.84493 3.69454 1.84493 4.77554C1.84493 6.82254 2.89143 8.62804 4.46693 9.68604C3.50093 9.65154 2.59243 9.38704 1.79893 8.95004C1.79893 8.97304 1.79893 8.99604 1.79893 9.03054C1.79893 11.8825 3.83443 14.2745 6.52543 14.815C6.03093 14.953 5.51343 15.022 4.97293 15.022C4.59343 15.022 4.22543 14.9875 3.86893 14.9185C4.61643 17.2645 6.80143 18.9665 9.37743 19.0125C7.35343 20.5995 4.81193 21.5425 2.05193 21.5425C1.58043 21.5425 1.10893 21.5195 0.648926 21.462C3.24793 23.118 6.35293 24.0955 9.67643 24.0955Z" fill="#121C2D"/>
</svg>
